<svg version="1.1" xmlns="http://www.w3.org/2000/svg" style="display: block;" viewBox="360 126 1360 1786" width="1360" height="1786" preserveAspectRatio="xMidYMid meet">
<defs>
	<linearGradient id="Gradient1" gradientUnits="userSpaceOnUse" x1="1320.15" y1="1307.4" x2="1344.4" y2="1241.82">
		<stop class="stop0" offset="0" stop-opacity="1" stop-color="rgb(254,142,28)"/>
		<stop class="stop1" offset="1" stop-opacity="1" stop-color="rgb(255,173,37)"/>
	</linearGradient>
	<linearGradient id="Gradient2" gradientUnits="userSpaceOnUse" x1="1366.08" y1="1267.91" x2="1390.64" y2="1171.21">
		<stop class="stop0" offset="0" stop-opacity="1" stop-color="rgb(254,147,23)"/>
		<stop class="stop1" offset="1" stop-opacity="1" stop-color="rgb(255,189,40)"/>
	</linearGradient>
	<linearGradient id="Gradient3" gradientUnits="userSpaceOnUse" x1="1412.61" y1="1200.87" x2="1419.59" y2="1126.61">
		<stop class="stop0" offset="0" stop-opacity="1" stop-color="rgb(254,160,22)"/>
		<stop class="stop1" offset="1" stop-opacity="1" stop-color="rgb(255,212,36)"/>
	</linearGradient>
	<linearGradient id="Gradient4" gradientUnits="userSpaceOnUse" x1="804.878" y1="1711.78" x2="806.242" y2="1766.17">
		<stop class="stop0" offset="0" stop-opacity="1" stop-color="rgb(57,193,252)"/>
		<stop class="stop1" offset="1" stop-opacity="1" stop-color="rgb(23,155,255)"/>
	</linearGradient>
	<linearGradient id="Gradient5" gradientUnits="userSpaceOnUse" x1="959.217" y1="1899.17" x2="952.001" y2="1740.58">
		<stop class="stop0" offset="0" stop-opacity="1" stop-color="rgb(0,77,233)"/>
		<stop class="stop1" offset="1" stop-opacity="1" stop-color="rgb(24,166,255)"/>
	</linearGradient>
	<linearGradient id="Gradient6" gradientUnits="userSpaceOnUse" x1="1189.45" y1="763.942" x2="1242.32" y2="779.92">
		<stop class="stop0" offset="0" stop-opacity="1" stop-color="rgb(141,71,26)"/>
		<stop class="stop1" offset="1" stop-opacity="1" stop-color="rgb(179,95,41)"/>
	</linearGradient>
	<linearGradient id="Gradient7" gradientUnits="userSpaceOnUse" x1="1121.34" y1="1129.31" x2="1024.75" y2="962.876">
		<stop class="stop0" offset="0" stop-opacity="1" stop-color="rgb(84,36,28)"/>
		<stop class="stop1" offset="1" stop-opacity="1" stop-color="rgb(162,90,33)"/>
	</linearGradient>
	<linearGradient id="Gradient8" gradientUnits="userSpaceOnUse" x1="1156.14" y1="918.878" x2="1008.73" y2="747.893">
		<stop class="stop0" offset="0" stop-opacity="1" stop-color="rgb(171,93,41)"/>
		<stop class="stop1" offset="1" stop-opacity="1" stop-color="rgb(198,123,62)"/>
	</linearGradient>
	<linearGradient id="Gradient9" gradientUnits="userSpaceOnUse" x1="1451.01" y1="1014.04" x2="1450.68" y2="866.98">
		<stop class="stop0" offset="0" stop-opacity="1" stop-color="rgb(255,163,27)"/>
		<stop class="stop1" offset="1" stop-opacity="1" stop-color="rgb(255,250,64)"/>
	</linearGradient>
	<linearGradient id="Gradient10" gradientUnits="userSpaceOnUse" x1="1445.47" y1="1118.09" x2="1445.95" y2="1006.12">
		<stop class="stop0" offset="0" stop-opacity="1" stop-color="rgb(254,86,27)"/>
		<stop class="stop1" offset="1" stop-opacity="1" stop-color="rgb(255,161,34)"/>
	</linearGradient>
	<linearGradient id="Gradient11" gradientUnits="userSpaceOnUse" x1="761.304" y1="1335.94" x2="730.552" y2="1058.18">
		<stop class="stop0" offset="0" stop-opacity="1" stop-color="rgb(0,71,254)"/>
		<stop class="stop1" offset="1" stop-opacity="1" stop-color="rgb(62,209,253)"/>
	</linearGradient>
	<linearGradient id="Gradient12" gradientUnits="userSpaceOnUse" x1="939.623" y1="1506.23" x2="915.171" y2="1600.56">
		<stop class="stop0" offset="0" stop-opacity="1" stop-color="rgb(45,203,252)"/>
		<stop class="stop1" offset="1" stop-opacity="1" stop-color="rgb(24,163,254)"/>
	</linearGradient>
	<linearGradient id="Gradient13" gradientUnits="userSpaceOnUse" x1="1011.39" y1="1779.19" x2="1034.49" y2="1456.89">
		<stop class="stop0" offset="0" stop-opacity="1" stop-color="rgb(0,77,230)"/>
		<stop class="stop1" offset="1" stop-opacity="1" stop-color="rgb(10,200,255)"/>
	</linearGradient>
	<linearGradient id="Gradient14" gradientUnits="userSpaceOnUse" x1="1496.65" y1="331.938" x2="1515.29" y2="265.198">
		<stop class="stop0" offset="0" stop-opacity="1" stop-color="rgb(83,190,46)"/>
		<stop class="stop1" offset="1" stop-opacity="1" stop-color="rgb(161,229,51)"/>
	</linearGradient>
	<linearGradient id="Gradient15" gradientUnits="userSpaceOnUse" x1="1069.64" y1="288.822" x2="1059.34" y2="217.224">
		<stop class="stop0" offset="0" stop-opacity="1" stop-color="rgb(85,192,42)"/>
		<stop class="stop1" offset="1" stop-opacity="1" stop-color="rgb(167,233,51)"/>
	</linearGradient>
	<linearGradient id="Gradient16" gradientUnits="userSpaceOnUse" x1="1537.31" y1="489.423" x2="1576.93" y2="432.103">
		<stop class="stop0" offset="0" stop-opacity="1" stop-color="rgb(89,192,50)"/>
		<stop class="stop1" offset="1" stop-opacity="1" stop-color="rgb(140,218,50)"/>
	</linearGradient>
	<linearGradient id="Gradient17" gradientUnits="userSpaceOnUse" x1="976.974" y1="440.369" x2="947.348" y2="373.23">
		<stop class="stop0" offset="0" stop-opacity="1" stop-color="rgb(90,193,45)"/>
		<stop class="stop1" offset="1" stop-opacity="1" stop-color="rgb(151,224,53)"/>
	</linearGradient>
	<linearGradient id="Gradient18" gradientUnits="userSpaceOnUse" x1="1007.49" y1="1577.05" x2="1023.44" y2="1199.99">
		<stop class="stop0" offset="0" stop-opacity="1" stop-color="rgb(0,75,235)"/>
		<stop class="stop1" offset="1" stop-opacity="1" stop-color="rgb(38,219,255)"/>
	</linearGradient>
</defs>

<path transform="translate(0,0)" fill="url(#Gradient18)" d="M 1660.26 1224.59 C 1664.16 1225.78 1662.61 1224.71 1665.11 1227.88 C 1666.7 1235.57 1663.79 1255.96 1662.18 1264.25 C 1661.36 1283.67 1656.46 1304.49 1652.65 1323.56 C 1648.77 1342.98 1627.36 1436.71 1615.08 1444.23 C 1604.48 1450.72 1591.4 1454.96 1580.06 1460.15 C 1562.55 1468.17 1545.31 1477.22 1528.28 1486.23 C 1489.53 1506.74 1451.69 1528.58 1410.34 1543.63 C 1310.54 1579.96 1202.69 1568.87 1104.22 1533.82 C 1075.71 1523.67 1048.05 1511.04 1020.46 1498.65 C 939.324 1462.21 868.219 1436.6 777.723 1445.08 C 741.805 1448.45 707.5 1457.24 673.904 1470.28 C 602.153 1498.13 540.391 1543.74 462.032 1553.61 C 455.344 1554.45 443.977 1556.84 437.483 1554.62 C 430.857 1552.35 426.988 1541.76 424.249 1535.89 C 402.748 1490.32 386.757 1442.36 376.616 1393.01 C 375.588 1387.92 372.41 1375.85 374.007 1371.49 C 378.136 1366.64 386.979 1368.52 394.118 1368.53 C 430.567 1368.43 466.78 1362.68 501.464 1351.47 C 575.025 1328.31 632.611 1285.29 710.33 1270.38 C 787.209 1254.59 873.843 1267.27 945.54 1299.35 C 1039.2 1341.25 1120.92 1375.32 1226.22 1370.61 C 1320.9 1366.37 1402.61 1329.07 1487.44 1289.17 C 1511.76 1277.73 1540.34 1264.64 1565.69 1255.6 C 1578.59 1247.18 1642.87 1229.02 1660.26 1224.59 z"/>
<path transform="translate(0,0)" fill="rgb(42,204,252)" d="M 1660.26 1224.59 C 1664.16 1225.78 1662.61 1224.71 1665.11 1227.88 C 1666.7 1235.57 1663.79 1255.96 1662.18 1264.25 C 1660.54 1255.18 1661.87 1245.05 1663.49 1236.03 C 1664.21 1231.96 1665.08 1231.09 1662.45 1227.52 C 1654.39 1229.42 1645.15 1251.72 1639.25 1258.85 L 1638.27 1258.23 C 1639.28 1253.32 1641.21 1250.15 1643.45 1245.68 C 1631.71 1244.68 1601.51 1249.71 1589.5 1252.54 C 1586.99 1253.13 1585.48 1253.88 1581.64 1254.48 L 1580.71 1254.62 C 1576.68 1256.59 1562.57 1261.46 1558.69 1260.12 C 1561.93 1259 1562.85 1258.75 1565.88 1256.93 L 1565.69 1255.6 C 1578.59 1247.18 1642.87 1229.02 1660.26 1224.59 z"/>
<path transform="translate(0,0)" fill="rgb(95,216,250)" d="M 1660.26 1224.59 C 1657.14 1228.12 1655.97 1229.32 1653.59 1233.31 C 1636.05 1233.63 1602.02 1247.65 1583.28 1252.17 L 1580.71 1254.62 C 1576.68 1256.59 1562.57 1261.46 1558.69 1260.12 C 1561.93 1259 1562.85 1258.75 1565.88 1256.93 L 1565.69 1255.6 C 1578.59 1247.18 1642.87 1229.02 1660.26 1224.59 z"/>
<path transform="translate(0,0)" fill="rgb(42,151,51)" d="M 1315.32 216.947 C 1333.26 186.539 1366.98 165.115 1398.71 151.623 C 1380.37 179.446 1362.62 207.066 1347.25 236.689 C 1344.86 241.3 1342.13 246.76 1339.45 251.113 C 1333.51 265.383 1326.75 279.259 1320.96 293.626 C 1302.87 338.57 1291.57 377.862 1281.49 424.847 L 1282 423.91 C 1286.56 415.33 1290.39 404.613 1294.2 396.26 C 1301.18 380.942 1328.56 328.243 1341.17 320.88 C 1346.13 314 1352.41 307.608 1358.54 301.769 C 1417.55 245.618 1500.67 241.962 1566.34 289.73 C 1587.35 304.745 1604.94 324.053 1617.92 346.375 C 1580.33 342.639 1550.73 342.91 1513.39 350.825 C 1502.33 353.17 1483.93 359.914 1474.78 361.316 L 1473.06 361.857 C 1470.19 357.953 1468.84 348.232 1466.52 343.026 C 1463.02 335.149 1458.66 327.77 1453.79 320.691 C 1454.31 339.895 1452.84 350.986 1451.78 369.335 C 1387.3 395.976 1330.45 434.923 1288.39 491.338 C 1296.84 484.553 1306.01 475.473 1313.83 469.193 C 1331.17 455.255 1368.66 429.321 1388.86 423.453 C 1491.35 374.933 1602.86 411.117 1650.94 514.544 C 1657.73 529.162 1666.63 554.009 1668.39 570.311 C 1675.8 590.629 1672.6 642.589 1669.55 665.531 C 1633.64 615.193 1579.54 576.985 1524.2 550.769 C 1521.83 526.012 1516.4 500.56 1503.62 478.859 C 1504.75 503.447 1503.29 517.04 1500.49 541.157 C 1455.17 523.854 1406.4 513.98 1357.78 516.052 C 1376.77 520.387 1395.07 525.286 1411.8 535.547 C 1484.71 575.139 1514.14 660.586 1495.79 739.24 C 1488.49 770.541 1478.84 791.471 1462.36 818.352 C 1453.12 764.747 1436.88 730.462 1407.73 685.92 C 1410.32 661.907 1411.82 626.766 1403.85 603.928 C 1402.23 621.683 1394.56 643.472 1389.09 660.681 C 1351.8 615.377 1323.46 590.153 1271.95 561.763 C 1267.51 558.633 1258.97 555.932 1253.7 554.436 C 1248.84 552.095 1232.09 555.516 1227.35 557.029 C 1174.82 568.546 1131.23 590.672 1088.09 621.972 C 1086.91 599.412 1086.86 588.958 1089.24 566.358 C 1074.51 593.711 1070.21 609.344 1064.58 640.269 C 1020.68 679.641 996.942 707.265 969.015 760.001 C 961.861 728.118 958.569 705.799 961.959 672.556 C 966.583 617 1000.16 553.219 1048.98 524.308 C 1076.44 503.192 1117.87 494.035 1152.12 494.493 C 1101.24 481.536 1052.93 483.281 1001.7 491.452 C 1003.14 470.039 1006.88 448.844 1012.87 428.236 C 995.718 447.87 983.492 471.306 977.202 496.604 C 906.902 514.894 867.209 536.826 809.442 578.905 C 810.473 570.679 813.435 547.695 816.52 540.332 C 826.903 490.242 856.617 438.48 894.918 404.582 C 915.202 384.983 947.25 368.541 974.356 361.066 C 1031.54 346.61 1084.69 357.872 1134.5 388.204 C 1137.18 389.834 1145.61 394.887 1147.17 397.167 C 1158.63 403.063 1169.74 415.317 1179.69 423.501 C 1199.56 439.841 1212.26 463.008 1228.66 481.446 C 1199.49 422.708 1161.05 374.19 1107.61 335.902 C 1111.68 318.139 1112.48 306.229 1117.84 286.906 C 1104.01 300.114 1098.23 306.815 1089.55 323.819 C 1085.88 321.658 1083.55 320.151 1080.12 317.635 C 1034.58 291.651 998.395 277.454 945.694 272.775 C 963.236 256.028 980.98 243.247 1002.92 232.48 C 1056.58 206.138 1123.7 209.079 1172.09 245.47 C 1189.54 258.599 1207.15 277.007 1216.73 296.837 C 1218.39 297.953 1223.25 307.31 1224.28 309.388 C 1242.34 345.714 1247.66 383.663 1254.43 423.122 C 1255.5 382.355 1255.87 341.076 1251.1 300.503 C 1249.84 289.77 1248.24 279.092 1247.02 268.356 C 1243.82 256.076 1241.51 239.821 1238.43 226.777 C 1234.39 209.716 1230.11 194.652 1225.2 177.839 C 1225.5 177.341 1239.22 163.1 1240.41 161.844 C 1253.2 176.294 1269.16 200.778 1274.44 219.362 C 1279.88 228.931 1285.1 256.306 1287.43 267.658 C 1293.58 252.04 1304.88 229.591 1315.32 216.947 z"/>
<path transform="translate(0,0)" fill="url(#Gradient17)" d="M 974.356 361.066 C 1031.54 346.61 1084.69 357.872 1134.5 388.204 C 1137.18 389.834 1145.61 394.887 1147.17 397.167 C 1139.85 397.089 1097.05 365.616 1085.97 368.506 C 1079.41 377.742 1072.47 387.699 1062.41 393.416 C 1058.31 395.742 1042.39 410.309 1040.88 413.855 C 1064.94 414.363 1084.94 419.363 1107.8 425.521 L 1107.06 426.096 C 1015.5 398.964 939.363 432.467 881.619 502.844 C 878.734 506.359 867.784 520.229 864.957 522.083 C 875.602 503.169 892.155 489.423 904.314 472.81 C 898.932 469.058 853.732 463.781 848.437 466.898 C 836.68 473.819 822.216 534.95 816.52 540.332 C 826.903 490.242 856.617 438.48 894.918 404.582 C 915.202 384.983 947.25 368.541 974.356 361.066 z"/>
<path transform="translate(0,0)" fill="rgb(147,222,65)" d="M 974.356 361.066 C 972.253 363.109 968.111 365.669 967.703 366.232 L 968.05 366.195 C 956.131 372.22 943.996 377.033 932.207 383.228 C 920.594 389.329 910.329 397.29 899.355 404.37 C 897.588 404.455 896.109 404.525 894.918 404.582 C 915.202 384.983 947.25 368.541 974.356 361.066 z"/>
<path transform="translate(0,0)" fill="url(#Gradient16)" d="M 1388.86 423.453 C 1491.35 374.933 1602.86 411.117 1650.94 514.544 C 1657.73 529.162 1666.63 554.009 1668.39 570.311 C 1654.55 556.341 1662.46 522.578 1635.85 523.769 C 1626.46 524.189 1608.96 519.708 1600.92 526.081 C 1599.79 528.799 1599.39 529.408 1597.43 531.603 C 1599.52 534.391 1610 552.556 1611.24 555.869 L 1610.66 557.03 C 1575.47 493.89 1511.65 456.698 1438.99 457.595 C 1435.77 457.635 1422.26 458.321 1420.36 457.045 C 1433.91 454.845 1464.96 456.246 1479.25 458.522 C 1485.87 459.575 1496.51 463.332 1503.12 463.655 L 1499.21 460.331 C 1494.54 444.523 1472.04 433.141 1460.61 422.757 C 1456.06 418.629 1458.08 410.213 1455.02 406.848 C 1439.13 403.293 1400.28 424.128 1388.86 423.453 z"/>
<path transform="translate(0,0)" fill="url(#Gradient15)" d="M 945.694 272.775 C 963.236 256.028 980.98 243.247 1002.92 232.48 C 1056.58 206.138 1123.7 209.079 1172.09 245.47 C 1189.54 258.599 1207.15 277.007 1216.73 296.837 C 1208 290.151 1199.53 269.086 1185.11 259.451 C 1181.97 259.668 1180.51 262.096 1175.69 262.674 C 1168.19 268.71 1137.53 280.778 1127.2 283.486 C 1119.77 285.433 1117.81 279.256 1109.83 282.611 C 1108.8 283.042 1099.93 285.305 1098.75 285.152 C 1086.92 283.613 1069.48 277.68 1057.7 281.535 C 1051.2 283.658 1042.93 286.708 1036.04 287.744 C 1031.09 284.394 1024.13 275.683 1019.74 277.052 C 1016.76 277.978 1013.41 280.402 1009.17 281.163 L 1009.07 282.889 C 1014.15 285.523 1020.02 286.525 1025.05 288.546 C 1035.47 292.728 1076 309.554 1080.12 317.635 C 1034.58 291.651 998.395 277.454 945.694 272.775 z"/>
<path transform="translate(0,0)" fill="rgb(105,199,52)" d="M 1122.93 282.274 C 1126.23 280.805 1134.28 278.504 1138.48 276.94 L 1175.69 262.674 C 1168.19 268.71 1137.53 280.778 1127.2 283.486 C 1119.77 285.433 1117.81 279.256 1109.83 282.611 C 1108.8 283.042 1099.93 285.305 1098.75 285.152 C 1086.92 283.613 1069.48 277.68 1057.7 281.535 C 1051.2 283.658 1042.93 286.708 1036.04 287.744 C 1031.09 284.394 1024.13 275.683 1019.74 277.052 C 1016.76 277.978 1013.41 280.402 1009.17 281.163 C 1009.34 279.842 1009.57 279.464 1010.02 278.197 C 1015.69 276.597 1028.33 271.571 1032.26 271.475 C 1030.04 272.775 1028.66 273.028 1027.7 274.926 C 1030.03 277.85 1039.97 281.387 1042.25 280.8 C 1061.28 275.909 1077.37 277.789 1096.67 279.895 C 1106.93 281.015 1112.74 277.263 1122.93 282.274 z"/>
<path transform="translate(0,0)" fill="url(#Gradient14)" d="M 1341.17 320.88 C 1346.13 314 1352.41 307.608 1358.54 301.769 C 1417.55 245.618 1500.67 241.962 1566.34 289.73 C 1587.35 304.745 1604.94 324.053 1617.92 346.375 C 1580.33 342.639 1550.73 342.91 1513.39 350.825 C 1502.33 353.17 1483.93 359.914 1474.78 361.316 C 1484.87 352.72 1537.63 344.106 1552.29 343.483 C 1542.76 335.748 1533.49 330.213 1524.31 322.43 C 1523.6 321.343 1520.91 320.794 1519.49 320.879 C 1501.61 321.955 1471.1 323.105 1455.35 313.638 C 1445.58 313.911 1416.12 326.737 1406.34 331.62 C 1399.18 335.195 1397.32 338.68 1387.06 342.365 L 1386.35 341.677 C 1391.41 336.03 1426.53 318.507 1434.63 315.928 C 1422.36 304.498 1412.54 299.838 1398.72 290.682 C 1396.75 289.381 1394.17 283.68 1391.37 281.004 C 1379.24 280.478 1350.13 317.362 1341.17 320.88 z"/>
<path transform="translate(0,0)" fill="rgb(105,199,52)" d="M 1411.8 535.547 C 1484.71 575.139 1514.14 660.586 1495.79 739.24 C 1493.34 731.35 1500.46 705.579 1499.27 695.608 C 1499.3 695.834 1487.31 685.948 1485.29 683.13 C 1477.61 672.452 1469.25 658.407 1464.09 646.401 C 1463.18 644.29 1461.5 632.935 1460.81 629.727 C 1458.39 618.37 1455.44 607.266 1453.65 595.815 C 1452.85 590.691 1455.1 579.26 1452.63 575.083 C 1448.21 567.59 1444.24 561.949 1437.5 555.951 C 1430.23 549.473 1419.02 543.843 1412.54 536.927 C 1412.3 536.467 1412.05 536.007 1411.8 535.547 z"/>
<path transform="translate(0,0)" fill="rgb(105,199,52)" d="M 961.959 672.556 C 966.583 617 1000.16 553.219 1048.98 524.308 C 1046.09 531.398 1025.92 541.52 1024.34 547.346 C 1013.98 585.33 999.941 620.196 968.519 645.652 C 968.128 645.968 966.2 668.182 961.959 672.556 z"/>
<path transform="translate(0,0)" fill="rgb(105,199,52)" d="M 1315.32 216.947 C 1333.26 186.539 1366.98 165.115 1398.71 151.623 C 1380.37 179.446 1362.62 207.066 1347.25 236.689 C 1344.86 241.3 1342.13 246.76 1339.45 251.113 C 1339 242.958 1349.51 232.077 1351.12 223.693 C 1348.59 221.704 1348.56 221.735 1346.64 219.172 L 1346.5 217.463 C 1346.39 216.229 1346.29 213.592 1346.19 212.568 C 1345.77 208.661 1339.22 196.658 1336.49 194.401 C 1329.92 199.126 1321.79 214.135 1315.32 216.947 z"/>
<path transform="translate(0,0)" fill="rgb(105,199,52)" d="M 1240.41 161.844 C 1253.2 176.294 1269.16 200.778 1274.44 219.362 C 1268.32 213.316 1262.83 191.707 1255.92 190.81 C 1252.57 192.72 1252.58 198.543 1252.21 202.182 L 1248.99 196.959 C 1244.97 197.868 1238.08 209.861 1238.21 213.166 C 1238.92 230.692 1248.63 249.923 1247.07 267.662 L 1247.02 268.356 C 1243.82 256.076 1241.51 239.821 1238.43 226.777 C 1234.39 209.716 1230.11 194.652 1225.2 177.839 C 1225.5 177.341 1239.22 163.1 1240.41 161.844 z"/>
<path transform="translate(0,0)" fill="url(#Gradient13)" d="M 618.863 1539.36 C 709.767 1486.29 803.244 1468.89 905.763 1496.07 C 953.815 1508.81 996.387 1530.93 1041.5 1551.28 C 1099.05 1577.24 1145.67 1591.98 1207.28 1602.58 C 1274.64 1613.26 1351.88 1608.25 1416.44 1585.48 C 1449.65 1573.76 1474.78 1560.65 1505.51 1544.19 C 1536.05 1527.82 1568.28 1506.97 1599.62 1493.61 C 1592.92 1511.94 1580.25 1537.16 1570.85 1554.4 C 1537.28 1617.03 1493.58 1673.68 1441.52 1722.05 C 1432.07 1730.99 1404.06 1755.82 1393.7 1761.54 C 1363.45 1778.21 1321.04 1789.01 1287.22 1793.38 C 1195.22 1805.26 1108.73 1783.43 1026.03 1743.73 C 979.48 1721.38 937.989 1701.02 887.512 1688.51 C 774.812 1660.56 681.981 1683.07 584.458 1741.44 C 566.43 1727.91 540.261 1700.87 524.865 1684.22 C 513.302 1671.71 459.651 1607.68 460.221 1596.67 C 464.834 1592.87 506.841 1587.71 519.913 1583.07 C 543.838 1574.57 564.623 1566.05 587.558 1554.58 C 594.667 1551.03 612.801 1541.41 618.863 1539.36 z"/>
<path transform="translate(0,0)" fill="url(#Gradient12)" d="M 618.863 1539.36 C 709.767 1486.29 803.244 1468.89 905.763 1496.07 C 953.815 1508.81 996.387 1530.93 1041.5 1551.28 C 1099.05 1577.24 1145.67 1591.98 1207.28 1602.58 L 1203.4 1603.37 C 1205.68 1604.81 1204.76 1603.93 1205.95 1606.28 L 1204.66 1607.8 C 1194.29 1612.36 1164.4 1616.14 1152.2 1618.1 C 1138.39 1620.31 1116.81 1623.33 1103.37 1623.47 C 1094.2 1623.57 1076.37 1621.15 1066.51 1620.22 C 1057.56 1619.38 1044.27 1619.23 1035.85 1618.06 C 1016.73 1615.4 995.357 1611.54 976.455 1607.5 C 964.996 1605.04 951.166 1597.98 939.425 1595.02 C 925.836 1591.6 912.391 1591.1 899.017 1586.72 C 881.547 1581.01 868.846 1571.19 851.344 1565.07 C 842.762 1562.08 836.412 1562.64 830.963 1560.89 C 801.164 1551.31 770.519 1542.83 740.193 1535.13 C 733.938 1533.54 725.075 1530.28 719.296 1529.16 C 701.772 1525.78 683.246 1529.28 665.675 1530.44 C 657.964 1530.94 647.153 1530.31 639.854 1530.9 C 635.289 1531.27 626.233 1540.5 618.863 1539.36 z"/>
<path transform="translate(0,0)" fill="url(#Gradient11)" d="M 553.879 1103.57 C 593.603 1078.71 691.982 1054.27 738.6 1058.99 C 783.32 1058.08 820.473 1066.07 863.076 1077.46 C 929.108 1102.36 984.257 1132.6 1034.45 1183.77 C 1044.21 1194.18 1063.39 1214.01 1070.79 1225.87 C 1084.3 1236.06 1122.42 1304.34 1130.07 1322.67 C 1105.73 1319.92 1061.97 1304.61 1038.69 1295.91 C 1005.41 1283.47 971.765 1267.29 938.459 1254.39 C 863.525 1225.38 804.012 1216.23 724.741 1224.39 C 712.33 1227.43 698.432 1229.82 685.753 1232.26 C 653.314 1238.5 625.119 1254.49 594.832 1265.67 C 535.768 1295.72 470.599 1325.87 403.507 1329.09 C 396.354 1329.43 377.504 1331.62 373.09 1326.09 C 371.709 1318.26 383.684 1282.27 388.378 1276.16 C 388.626 1275.46 388.874 1274.77 389.122 1274.07 C 418.122 1204.42 485.691 1134.65 553.879 1103.57 z"/>
<path transform="translate(0,0)" fill="rgb(0,106,249)" d="M 724.741 1224.39 L 723.602 1223.19 C 727.581 1219.27 730.345 1220.02 734.861 1217.83 C 757.246 1206.94 783.406 1207.17 807.646 1209.5 C 815.816 1210.28 815.898 1210.76 824.116 1208.77 C 833.184 1206.7 843.723 1208.24 853.01 1207.41 C 868.174 1206.05 886.67 1210.37 901.416 1209.49 C 928.061 1207.9 946.89 1205.93 973.099 1213.34 C 987.13 1217.3 1011.2 1211.85 1024.96 1222.2 C 1040.71 1231.87 1056.33 1244.22 1069.29 1257.43 C 1077.43 1265.73 1087.16 1272.27 1095.89 1279.91 C 1101.58 1284.9 1105.38 1295.39 1112.81 1297.51 L 1113.9 1296.28 C 1112.58 1282.58 1070.09 1231.17 1070.79 1225.87 C 1084.3 1236.06 1122.42 1304.34 1130.07 1322.67 C 1105.73 1319.92 1061.97 1304.61 1038.69 1295.91 C 1005.41 1283.47 971.765 1267.29 938.459 1254.39 C 863.525 1225.38 804.012 1216.23 724.741 1224.39 z"/>
<path transform="translate(0,0)" fill="rgb(0,106,249)" d="M 395.949 1263.53 C 411.393 1263.28 427.982 1261.39 443.478 1263.25 C 453.419 1264.44 467.734 1269.13 477.769 1269.12 C 502.981 1269.08 528.456 1268.01 553.661 1267.5 C 570.292 1267.17 578.352 1258.34 594.832 1265.67 C 535.768 1295.72 470.599 1325.87 403.507 1329.09 C 396.354 1329.43 377.504 1331.62 373.09 1326.09 C 371.709 1318.26 383.684 1282.27 388.378 1276.16 C 392.649 1272.4 393.569 1268.85 395.949 1263.53 z"/>
<path transform="translate(0,0)" fill="rgb(95,216,250)" d="M 553.879 1103.57 C 593.603 1078.71 691.982 1054.27 738.6 1058.99 C 734.686 1061.75 691.195 1061.23 684.014 1064.77 C 682.849 1065.34 679.114 1065.57 677.571 1065.65 C 680.931 1065.87 688.069 1065.85 690.475 1067.54 C 685.148 1070.71 671.958 1071.6 665.383 1072.26 C 634.714 1075.35 604.941 1092.05 575.539 1098.29 L 575.875 1097.23 C 582.855 1093.8 591.237 1092.23 595.482 1088.19 L 594.66 1087.46 C 584.504 1090.56 560.3 1103.6 553.879 1103.57 z"/>
<path transform="translate(0,0)" fill="url(#Gradient10)" d="M 1220.41 1002.94 C 1221.91 1000.12 1223.48 997.332 1225.11 994.577 C 1260.81 934.637 1325.69 890.163 1393.11 873.565 C 1440.02 861.782 1489.23 862.782 1535.63 876.462 C 1544.37 879.023 1560.77 884.666 1568.62 889.387 C 1585.15 896.117 1598.83 905.871 1612.9 916.518 C 1641.73 939.472 1670.54 973.828 1684.66 1008.17 C 1694.24 1024.29 1713.97 1103.21 1703.96 1117.77 C 1688.62 1121.55 1190.51 1118.66 1190 1118.45 C 1188.05 1117.65 1187.21 1115.65 1186.77 1113.74 C 1185.48 1108.15 1187.37 1100.6 1188.3 1094.94 C 1193.49 1063.22 1203.65 1030.6 1220.41 1002.94 z"/>
<path transform="translate(0,0)" fill="url(#Gradient9)" d="M 1220.41 1002.94 C 1221.91 1000.12 1223.48 997.332 1225.11 994.577 C 1260.81 934.637 1325.69 890.163 1393.11 873.565 C 1440.02 861.782 1489.23 862.782 1535.63 876.462 C 1544.37 879.023 1560.77 884.666 1568.62 889.387 C 1585.15 896.117 1598.83 905.871 1612.9 916.518 C 1641.73 939.472 1670.54 973.828 1684.66 1008.17 L 1683.04 1009.38 C 1657.93 1010.48 1637.76 1003.46 1610.69 1009.02 C 1594.11 1009.98 1576.12 1008.71 1559.69 1009.62 C 1516.6 1012 1474.35 1014.26 1431.23 1013.53 C 1409.27 1013.15 1385.22 1013.99 1362.99 1011.89 C 1343.11 1010.02 1229.58 1015.16 1219.55 1009.02 L 1220.41 1002.94 z"/>
<path transform="translate(0,0)" fill="rgb(255,237,71)" d="M 1568.62 889.387 C 1585.15 896.117 1598.83 905.871 1612.9 916.518 C 1605.01 917.184 1578.38 899.142 1570.3 894.306 C 1575.66 893.68 1574.16 896.727 1580.18 897.776 C 1577.49 893.963 1573.77 895.345 1568.62 889.387 z"/>
<path transform="translate(0,0)" fill="url(#Gradient8)" d="M 1227.35 557.029 C 1232.09 555.516 1248.84 552.095 1253.7 554.436 C 1258.97 555.932 1267.51 558.633 1271.95 561.763 C 1271.36 572.143 1270.96 583.94 1269.95 594.184 C 1270.41 612.077 1266.41 645.998 1264.25 663.925 C 1251.36 774.218 1219.34 881.418 1169.62 980.711 C 1162.84 994.507 1147.31 1025.32 1138.54 1037.85 C 1133.07 1049.21 1123.09 1063.84 1116.33 1074.52 C 1091.68 1113.5 1063.96 1148.45 1034.45 1183.77 C 984.257 1132.6 929.108 1102.36 863.076 1077.46 C 870.266 1072.74 877.511 1068.09 884.809 1063.54 C 886.716 1061.64 905.804 1048.45 909.365 1045.84 C 923.477 1035.39 937.389 1024.67 951.093 1013.69 C 961.097 1003.58 979.437 988.681 990.878 977.927 C 1018.04 952.575 1043.39 925.353 1066.75 896.46 C 1136.95 808.49 1177.17 733.793 1211.17 627.612 C 1212.56 619.111 1217.99 602.918 1219.88 593.359 C 1221.19 586.76 1224.85 568.252 1226.81 562.829 L 1227.35 557.029 z"/>
<path transform="translate(0,0)" fill="url(#Gradient7)" d="M 884.809 1063.54 L 885.224 1064.39 C 884.108 1066.81 882.974 1066.75 880.096 1068.4 L 879.979 1069.6 C 907.588 1080.58 928.651 1060.49 950.852 1050.01 C 960.914 1045.27 978.004 1045.26 989.814 1039.36 C 1013.34 1027.61 1034.41 1014.33 1055.79 999.054 C 1077.26 985.422 1093.13 974.224 1110.19 955.222 C 1114.26 950.688 1133.78 941.324 1136.57 935.831 C 1142.12 924.906 1161.52 900.48 1164.96 891.292 C 1163.35 884.197 1179.13 849.143 1183.43 845.632 C 1179.53 859.675 1173.12 868.695 1167.91 881.528 C 1173.26 876.56 1189.94 869.56 1196.69 872.749 L 1197.88 875.183 C 1189.77 893.611 1191.27 895.475 1191.46 916.27 C 1178.53 930.342 1180.69 935.962 1175.73 953.535 C 1173.62 960.997 1163.75 971.51 1163.24 980.077 C 1163.17 980.775 1164.13 984.374 1164.11 984.533 C 1163.06 997.04 1138.37 1027.06 1138.54 1037.85 C 1133.07 1049.21 1123.09 1063.84 1116.33 1074.52 C 1091.68 1113.5 1063.96 1148.45 1034.45 1183.77 C 984.257 1132.6 929.108 1102.36 863.076 1077.46 C 870.266 1072.74 877.511 1068.09 884.809 1063.54 z"/>
<path transform="translate(0,0)" fill="url(#Gradient6)" d="M 1227.35 557.029 C 1232.09 555.516 1248.84 552.095 1253.7 554.436 C 1258.97 555.932 1267.51 558.633 1271.95 561.763 C 1271.36 572.143 1270.96 583.94 1269.95 594.184 C 1270.41 612.077 1266.41 645.998 1264.25 663.925 C 1251.36 774.218 1219.34 881.418 1169.62 980.711 C 1162.84 994.507 1147.31 1025.32 1138.54 1037.85 C 1138.37 1027.06 1163.06 997.04 1164.11 984.533 C 1164.13 984.374 1163.17 980.775 1163.24 980.077 C 1163.75 971.51 1173.62 960.997 1175.73 953.535 C 1180.69 935.962 1178.53 930.342 1191.46 916.27 C 1191.27 895.475 1189.77 893.611 1197.88 875.183 L 1196.69 872.749 C 1189.94 869.56 1173.26 876.56 1167.91 881.528 C 1173.12 868.695 1179.53 859.675 1183.43 845.632 C 1217.41 768.456 1238.4 686.201 1245.58 602.185 C 1246.84 589 1249.74 567.5 1249.51 554.965 C 1245.19 555.729 1232.75 557.681 1229.32 559 L 1227.99 562.951 L 1226.81 562.829 L 1227.35 557.029 z"/>
<path transform="translate(0,0)" fill="rgb(117,56,19)" d="M 1253.7 554.436 C 1258.97 555.932 1267.51 558.633 1271.95 561.763 C 1271.36 572.143 1270.96 583.94 1269.95 594.184 C 1267.92 586.564 1268.95 581.766 1269.73 573.952 L 1268.62 573.016 C 1265.54 573.312 1263.15 574 1260.63 572.463 C 1256.27 565.492 1263.6 562.058 1253.7 554.436 z"/>
<path transform="translate(0,0)" fill="rgb(217,134,66)" d="M 1066.75 896.46 C 1136.95 808.49 1177.17 733.793 1211.17 627.612 C 1211.03 635.675 1205.21 657.871 1201.59 665.942 C 1193.82 683.278 1189.27 697.344 1185 716.073 C 1182.63 726.473 1169.46 742.658 1165.23 753.074 C 1162.2 758.717 1161.51 767.327 1158.5 772.751 C 1145.51 796.126 1131.28 818.236 1116.02 840.134 C 1104.86 856.15 1096.71 870.275 1082.16 883.814 C 1077.84 887.841 1073.62 894.598 1068.98 899.1 C 1068.46 899.608 1067.93 900.106 1067.4 900.593 C 1059.96 907.749 1051.36 922.046 1046.11 927.048 C 1031.63 940.861 965.651 1009.46 951.093 1013.69 C 961.097 1003.58 979.437 988.681 990.878 977.927 C 1018.04 952.575 1043.39 925.353 1066.75 896.46 z"/>
<path transform="translate(0,0)" fill="url(#Gradient5)" d="M 633.588 1754.22 C 719.696 1708.1 804.367 1698.19 899.281 1726.28 C 919.208 1732.17 966.672 1750.79 984.149 1761.47 C 989.609 1763.04 1006.24 1771.55 1011.79 1774.23 C 1025.36 1780.79 1039.12 1786.94 1053.05 1792.68 C 1135.86 1825.98 1213.77 1835.55 1302.14 1822.05 C 1236.55 1855.72 1174.51 1878.17 1101.65 1890.46 C 953.52 1915.45 802.194 1883.31 674.239 1805.6 C 653.08 1792.75 634.726 1779.68 614.578 1765.28 L 633.588 1754.22 z"/>
<path transform="translate(0,0)" fill="url(#Gradient4)" d="M 633.588 1754.22 C 719.696 1708.1 804.367 1698.19 899.281 1726.28 C 919.208 1732.17 966.672 1750.79 984.149 1761.47 C 980.598 1761.62 971.104 1760.13 967.452 1759.41 C 944.87 1754.94 924.827 1755.36 902.112 1757.29 C 892.015 1758.15 880.76 1757 870.125 1758.01 L 814.298 1763.63 C 803.347 1764.83 792.799 1766 781.878 1766.67 C 746.626 1768.83 711.785 1760.27 676.95 1756.71 C 671.255 1756.13 658.095 1759.66 651.364 1760.21 C 639.132 1761.2 642.109 1756.89 633.588 1754.22 z"/>
<path transform="translate(0,0)" fill="url(#Gradient3)" d="M 1442.68 1143.49 C 1474.08 1143.37 1693.49 1141.65 1700.12 1155.39 C 1681.24 1181.27 1556.83 1185.15 1524.18 1186.2 C 1480.97 1187.72 1437.74 1188.38 1394.5 1188.19 C 1355.2 1188.23 1157.34 1191.39 1135.51 1166.43 C 1135.51 1164.49 1135.06 1164.66 1136.25 1163.56 C 1155.25 1146.06 1400.25 1143.71 1442.68 1143.49 z"/>
<path transform="translate(0,0)" fill="url(#Gradient2)" d="M 1347.81 1207.45 C 1355.09 1207.01 1363.01 1206.9 1370.34 1206.96 C 1436.74 1207.49 1507.27 1205.51 1572.81 1216.25 C 1517.78 1237.19 1466.88 1240.73 1408.37 1242.19 C 1375.08 1244.18 1212.75 1243.58 1188.92 1222.79 L 1188.83 1220.95 C 1201.14 1211.07 1325.83 1208.07 1347.81 1207.45 z"/>
<path transform="translate(0,0)" fill="url(#Gradient1)" d="M 1305.55 1264.42 C 1340.65 1261.07 1396.56 1266.11 1431.37 1272.43 C 1408.24 1284.86 1382.92 1291.14 1357.26 1295.63 C 1321.65 1302.29 1264.32 1296.99 1234.89 1274.24 C 1253.45 1267.77 1285.51 1265.77 1305.55 1264.42 z"/>
<path transform="translate(0,0)" fill="rgb(147,222,65)" d="M 1211.73 136.917 C 1222.98 144.558 1231.18 152.038 1240.41 161.844 C 1239.22 163.1 1225.5 177.341 1225.2 177.839 C 1221.11 164.213 1216.29 150.428 1211.73 136.917 z"/>
</svg>