<svg xmlns="http://www.w3.org/2000/svg" viewBox="0 0 1100.4 1212.4">
    <path d="M95.872 302.56s264.2-319.2 364.6-204.25c100.4 114.95 155.25 265.8 236.55 204.25 62.4-47.25 119.8-172.65 212.25-102.8 92.55 69.85 136.95 174.05 93.7 139.05-70.7-57.3-131.05-155.45-272.8 14.25-124.35 148.9-279.85-201.55-361.95-167.15-91.2 38.15-186.1 164.05-249 163.3-38-.45-54.85-10.6-23.35-46.65"
            fill="#fc0"/>
    <path d="M86.588 1065.081s136.95-158.2 397-104.35c213.9 44.15 288.8 183.7 516.8 52.5 47.55-27.35-1.65 43.2-68.35 76.65-195 97.85-427.7-31.8-551.7-56.15-118.25-23.25-243.45 32-272.8 46.95-29.4 15.05-34.65-1.6-20.95-15.6"
            fill="#009ee3"/>
    <path d="M99.722 494.56c0-29.05 19-48.65 48.6-48.65 29.65 0 48.65 19.6 48.65 48.65v349.2c0 29-19 48.6-48.65 48.6-29.6 0-48.6-19.6-48.6-48.6v-349.2zM388.428 534.121h-91.9c-27.85 0-50.4-14.25-50.4-40.95 0-26.7 22.55-40.9 50.4-40.9h281.05c27.9 0 50.4 14.2 50.4 40.9s-22.5 40.95-50.4 40.95h-91.9v304.9c0 29.1-19 48.7-48.6 48.7-29.65 0-48.65-19.6-48.65-48.7v-304.9zM887.358 635.761c88.95 20.1 111.45 72.95 111.45 122.75 0 77.05-58.1 134.55-175.45 134.55-123.4 0-178.5-61.65-178.5-107.9 0-23.7 17.2-40.3 40.9-40.3 52.75 0 39.1 77.1 137.6 77.1 50.35 0 78.2-27.85 78.2-56.35 0-17.2-8.25-36.15-41.5-44.5l-109.65-27.85c-88.35-22.5-104.4-71.15-104.4-116.75 0-94.9 87.75-130.45 170.2-130.45 75.85 0 165.45 42.65 165.45 99.55 0 24.35-20.8 38.5-44.45 38.5-45.15 0-36.8-63.4-127.55-63.4-45.05 0-69.95 20.8-69.95 50.4 0 29.65 35.6 39.15 66.45 46.3l81.2 18.35z"
            fill="#e3000f"/>
</svg>
