<svg xmlns="http://www.w3.org/2000/svg" viewBox="0 0 1113.5 424.5" xml:space="preserve"><path d="M536.4 281.9c-54.2 0-93.5-39.4-93.5-93.7s39.3-93.7 93.5-93.7c39.2 0 60.6 20.6 65.1 25.5l-17.3 27.9c-5.2-4.9-22.2-18.6-45.4-18.6-32 0-55.3 24.6-55.3 58.6 0 15.9 5.5 30.6 15.4 41.6 10.4 11.4 25 17.7 41.3 17.7 24.1 0 43-14.6 50.6-21.6 2.1 11.4 6.1 22.1 11.9 31.8-8.5 7.5-31.4 24.5-66.3 24.5m577.1-2.9c-28.1 4-55.4-4.2-55.4-45.3V86.6h35.4v141.9c0 15.7 6.9 22 20 20.8zm-582.9 28v-7.6m155.5-167.7c-43.6 0-78.7 31.2-78.7 75.1 0 44.1 35.1 75.1 79 75.1 43.6 0 78.7-30.9 78.7-75.1.1-43.8-35.1-75.1-79-75.1m.3 119.8c-23.3 0-42.7-18-42.7-44.7 0-26.4 19.4-44.7 42.7-44.7 23 0 42.5 18.3 42.5 44.7 0 26.7-19.4 44.7-42.5 44.7m183.1-117.8v35.1c-39.8-7.3-50.6 32.1-50.6 52.9v56.8h-35.7V135.1h34.3V169c6.5-20.5 30.2-39.9 52-35.3m125.3 1.4v12.2c-12.6-10-28.5-15.6-45.3-15.6-44 0-76 31.7-76 75.3 0 19.7 7.2 38.1 20.3 51.9 13.9 14.7 33.6 22.8 55.4 22.8q26.85 0 45.6-15v11.8h34.3V135.1zm-42.3 115.7c-23.3 0-42.7-18-42.7-44.7 0-26.4 19.4-44.7 42.7-44.7 23.1 0 42.5 18.3 42.5 44.7 0 26.7-19.4 44.7-42.5 44.7M443.8 389.6c0 29.9 19.8 35.7 33.2 33V416c-10.1 1.5-25.6-2.7-25.6-26.5v-48H475v-6.8h-23.6V310h-7.6zm86.9-48.2c-18.5-3.5-33.7 17.8-33.7 41.7v39.1h-7.6v-87.5h7.6v21.9c4.7-13.4 16.6-26.3 33.7-22.9zm301.5 81.5c-7.8 1.4-20.9-1.6-20.9-18.6v-99.1h7.6v97.1c0 12.6 6.8 14.3 13.3 13.5zm-219.5-88.1v19.5c-7.6-12.7-21.3-21-37.7-21-25.7 0-45.8 20-45.8 45.6 0 12.4 4.6 24 13.1 32.4 8.5 8.5 20.1 13.2 32.8 13.2 12.6 0 24.2-4.7 32.6-13.2 2-2 3.7-4.1 5.1-6.4v17.5h7.6v-87.5h-7.7zm-37.8 82.9c-21.6 0-38-16.7-38-38.9 0-21.8 16.7-38.9 38-38.9 20.7 0 37 16.3 37.7 37.3v3.1c-.7 21.5-16.7 37.4-37.7 37.4m180-85.6c-25.7 0-43.3 20.3-43.3 46.1 0 12.6 4.6 24.2 13.1 32.8s20.1 13.4 32.8 13.4c12.2 0 23.4-4.4 31.8-12.5l-4.1-6.3c-6.8 7.5-16.5 12-27.7 12-21.6 0-37.9-16.9-38-39.2H794c2.8-27.4-13.9-46.3-39.1-46.3m0 6.8c18.9 0 31.5 14.3 31.3 32.4h-66.3c2.7-18.7 16-32.4 35-32.4m-54.3-4.1-26.7 68c-1.6 4.3-3.1 9.7-3.1 9.7h-.4s-1.4-5.4-3.1-9.7l-26.7-68h-8.1l34.5 87.5h7.2l34.3-87.5z" style="fill:#0089c8"/><path d="M190.9 381.8c88 0 162.1-59.5 184.2-140.5H6.7c22.2 81 96.2 140.5 184.2 140.5" style="fill:#78abdc"/><path d="M190.9 381.8c53.1 0 101.1-21.7 135.7-56.6H55.2c34.6 34.9 82.6 56.6 135.7 56.6" style="fill:#0077b1"/><path d="M6.7 241.3H375c4.4-16.1 6.7-33 6.7-50.4 0-32.8-8.3-63.7-22.9-90.7H22.9C8.3 127.2 0 158.1 0 190.9c0 17.5 2.4 34.4 6.7 50.4" style="fill:#fab60d"/><path d="M6.7 241.2h368.4c4.4-16 6.7-32.9 6.7-50.3 0-9.4-.7-18.6-2-27.6H2c-1.3 9-2 18.2-2 27.6 0 17.4 2.3 34.3 6.7 50.3" style="fill:#e65014"/><path d="M22.9 100.2h336c-9.2-17-20.9-32.4-34.6-45.8H57.5c-13.7 13.4-25.4 28.8-34.6 45.8" style="fill:#fdce86"/><path d="M56.8 55H325C290.5 21 243.2 0 190.9 0S91.3 21 56.8 55" style="fill:#ee762d"/></svg>