<svg version="1.1" xmlns="http://www.w3.org/2000/svg" x="0" y="0" viewBox="0 0 471.12 157.82" style="enable-background:new 0 0 471.12 157.82" xml:space="preserve">
    <path d="M471.12 157.82H0V0h471.12v157.82z" style="fill:#fff"/>
    <path fill="#ffb400"
          d="M75.91 77.39C86.54 65.24 90.2 48.44 91.53 37c.35-3.02 2.62-11.49-3.84-11.03-7.85.56-5.83 24.76-14.55 23.95-7.49-.7-15.78-24.69-22.69-21.46-6.91 3.22 10.01 21.93 8.93 28.09-1.16 6.58-30.52-12.75-34.09-4.39-2.33 5.45 29.18 12.04 27.58 17.47-1.59 5.43-32.2 3.91-29.81 11.95 2.38 8.04 28.56-5.59 30.55 1.11 1.99 6.7-23.33 16.65-20.14 25.55 1.95 5.43 29.52-16.1 42.44-30.85zM106.77 73.14c-3.88-7.87 19.41-14.65 17.12-22.18-1.89-6.21-8.97-1.05-11.66.36-10.18 5.34-24.54 14.78-32.06 29.06-9.14 17.36-19.34 50.85-13.6 50.72 9.45-.21 9.66-27.44 16.62-27.98 6.96-.54 3.62 28.82 11.97 28.17 8.35-.65-4.02-28.72.48-32.15 4.5-3.43 21.91 23.67 26.16 19.54 6.52-6.33-22.01-26.86-16.29-30.3 5.35-3.22 28.86 5.91 29.39-1.71.54-7.62-24.8-6.78-28.13-13.53z"/>
    <path fill="#0082c8"
          d="M256.04 93.16c-7.2 0-10.2 5-10.2 10.75v4.65c0 5.8 2.65 10.8 10.15 10.8 2.15 0 4.55-.35 6.4-1.05 1.6-.65 2.75-1.55 2.75-2.8s-.75-2.15-2-2.15c-.9 0-1.55.4-2.65.85-.9.3-2.15.6-4.15.6-3.45 0-4.95-2.25-4.95-5.7v-1.15h12.8c1.05 0 1.95-.85 1.95-2.05v-2.05c0-5.9-2.75-10.7-10.1-10.7zm4.75 10.55h-9.4v-.75c0-3.35 1.45-5.4 4.75-5.4 3.35 0 4.65 2 4.65 5.4v.75zM211.54 93.16c-1.5 0-2.8 1.25-2.8 2.8v20.65c0 1.5 1.3 2.75 2.8 2.75 1.55 0 2.8-1.25 2.8-2.75V95.96c0-1.55-1.25-2.8-2.8-2.8z"/>
    <circle fill="#0082c8" cx="211.54" cy="85.66" r="3.25"/>
    <path fill="#0082c8"
          d="M173.54 93.16c-1.7 0-4.75.35-6.95 3.3-.8-1.6-2.4-3-4.3-3-1.75 0-2.85.75-2.85 2.35 0 .75.4 1.3.9 1.7.9.6 1.5 1.1 1.5 2.95v16.15c0 1.5 1.25 2.75 2.8 2.75 1.55 0 2.8-1.25 2.8-2.75v-14.45c.7-2.95 2.85-3.7 4.9-3.7 1.65 0 2.1.3 3 .3 1.7 0 2.6-1.3 2.6-2.7 0-2-2.3-2.9-4.4-2.9zM190.99 93.16c-7.2 0-10.2 5-10.2 10.75v4.65c0 5.8 2.65 10.8 10.15 10.8 2.15 0 4.55-.35 6.4-1.05 1.6-.65 2.75-1.55 2.75-2.8s-.75-2.15-2-2.15c-.9 0-1.55.4-2.65.85-.9.3-2.15.6-4.15.6-3.45 0-4.95-2.25-4.95-5.7v-1.15h12.8c1.05 0 1.95-.85 1.95-2.05v-2.05c0-5.9-2.75-10.7-10.1-10.7zm4.75 10.55h-9.4v-.75c0-3.35 1.45-5.4 4.75-5.4 3.35 0 4.65 2 4.65 5.4v.75zM233.19 104.06c-3.3-.7-6.25-.9-6.25-3.5 0-1.55 1.3-2.8 4-2.8 1.85 0 3.15.3 5 .95 1.25.45 2.55-.3 2.95-1.45.4-1.25-.15-2.55-1.5-3.05-1.85-.7-3.7-1.05-6.7-1.05-4.95 0-9 2.7-9 7.75 0 4.85 3.05 6.25 6.2 7 3.45.85 7 .85 7 3.7 0 1.9-1.55 3.15-4.65 3.15-2.65 0-3.95-.4-5.5-.95-1.2-.45-2.6.1-3.05 1.45-.4 1.15.1 2.6 1.35 3.05 1.8.65 3.75 1.05 7.15 1.05 5.4 0 10-2.4 10-8 0-5.3-3.55-6.55-7-7.3zM284.59 93.16c-3.4 0-5.9 1.05-7.65 2.85-.3-.55-.65-1.1-1.15-1.5-.9-.7-2-1.05-2.9-1.05-1.6 0-2.8.7-2.8 2.35 0 .75.4 1.3.9 1.7.9.6 1.5 1.1 1.5 2.95v16.15c0 1.5 1.25 2.75 2.8 2.75 1.55 0 2.8-1.25 2.8-2.75v-15.6c1-1.6 2.75-2.65 5.15-2.65 3.35 0 4.1 2.05 4.1 4.65v13.6c0 1.5 1.2 2.75 2.75 2.75s2.8-1.25 2.8-2.75v-14.2c0-5.4-2-9.25-8.3-9.25z"/>
    <g><path fill="#0082c8" d="M294.32 47.75c-1.5 0-2.8 1.25-2.8 2.8V71.2c0 1.5 1.3 2.75 2.8 2.75 1.55 0 2.8-1.25 2.8-2.75V50.54c0-1.54-1.24-2.79-2.8-2.79zM171.08 58.65c-3.3-.7-6.25-.9-6.25-3.5 0-1.55 1.3-2.8 4-2.8 1.85 0 3.15.3 5 .95 1.25.45 2.55-.3 2.95-1.45.4-1.25-.15-2.55-1.5-3.05-1.85-.7-3.7-1.05-6.7-1.05-4.95 0-9 2.7-9 7.75 0 4.85 3.05 6.25 6.2 7 3.45.85 7 .85 7 3.7 0 1.9-1.55 3.15-4.65 3.15-2.65 0-3.95-.4-5.5-.95-1.2-.45-2.6.1-3.05 1.45-.4 1.15.1 2.6 1.35 3.05 1.8.65 3.75 1.05 7.15 1.05 5.4 0 10-2.4 10-8 0-5.3-3.55-6.55-7-7.3zM194.38 52.4c1.7 0 2.9.3 4.1.85 1.1.55 2.4.05 2.85-1.1.55-1.35.05-2.35-1-2.95-1.9-1.1-4.35-1.45-6.4-1.45-6.8 0-10.2 5.2-10.2 11.5v3.45c0 6.5 3 11.25 10.15 11.25 2.1 0 4.35-.35 6.4-1.45 1-.55 1.55-1.55 1.1-2.9-.45-1.2-1.75-1.75-2.9-1.2-1.55.75-2.9.95-4.25.95-3.3 0-4.95-2.4-4.95-6.35v-4.3c0-3.91 1.9-6.3 5.1-6.3zM222.17 71.2c0 1.5 1.25 2.75 2.8 2.75 1.55 0 2.8-1.25 2.8-2.75V57c0-5.4-2-9.25-8.35-9.25-2.75 0-4.9.7-6.45 2V40.2c0-1.5-1.25-2.75-2.8-2.75-1.5 0-2.8 1.25-2.8 2.75v31c0 1.5 1.3 2.75 2.8 2.75 1.55 0 2.8-1.25 2.8-2.75V55.6c1-1.6 2.8-2.6 5.1-2.6 3.4 0 4.1 2 4.1 4.6v13.6zM251.17 73.2c.8.5 1.6.75 2.5.75 1.55 0 2.75-.7 2.75-2.3 0-.85-.4-1.4-.9-1.75-.9-.6-1.35-1.1-1.35-2.95V58.1c0-7.05-2.45-10.35-9.65-10.35-1.75 0-4.15.25-6.1 1-1.55.65-2.65 1.5-2.65 2.75 0 1.2.9 2.15 2.15 2.15.8 0 1.4-.4 2.5-.8.95-.35 2.05-.65 3.7-.65 3.6 0 4.5 1.85 4.5 5.3v1.1h-5.1c-6.4 0-9.55 2.95-9.55 7.35v.4c0 4.45 2.8 7.6 8.9 7.6 2.2 0 5-.45 6.9-2.35.35.65.85 1.19 1.4 1.6zm-2.55-7.95c0 3.1-1.85 4.65-4.7 4.65-3.25 0-4.45-1.45-4.45-3.45v-.35c0-1.85 1.1-3.4 4.65-3.4h4.5v2.55zM270.88 73.95c3.35 0 5.8-1 7.55-2.75.3.65.7 1.2 1.25 1.65.85.75 2 1.1 2.9 1.1 1.6 0 2.8-.7 2.8-2.3 0-.85-.4-1.4-.9-1.75-.9-.6-1.55-1.1-1.55-2.95v-16.4c0-1.55-1.2-2.8-2.75-2.8s-2.8 1.25-2.8 2.8v15.4c-1 1.7-2.65 2.75-5.1 2.75-3.35 0-4.1-1.8-4.1-4.6V50.54c0-1.55-1.3-2.8-2.8-2.8-1.55 0-2.8 1.25-2.8 2.8V64.7c-.01 5.4 2.19 9.25 8.3 9.25z"/>
        <circle fill="#0082c8" cx="294.32" cy="40.25" r="3.25"/>
        <path fill="#0082c8"
              d="M317.72 47.75c-3.4 0-5.9 1.05-7.65 2.85-.3-.55-.65-1.1-1.15-1.5-.9-.7-2-1.05-2.9-1.05-1.6 0-2.8.7-2.8 2.35 0 .75.4 1.3.9 1.7.9.6 1.5 1.1 1.5 2.95V71.2c0 1.5 1.25 2.75 2.8 2.75 1.55 0 2.8-1.25 2.8-2.75V55.6c1-1.6 2.75-2.65 5.15-2.65 3.35 0 4.1 2.05 4.1 4.65v13.6c0 1.5 1.2 2.75 2.75 2.75s2.8-1.25 2.8-2.75V57c0-5.4-2-9.25-8.3-9.25zM344.87 58.65c-3.3-.7-6.25-.9-6.25-3.5 0-1.55 1.3-2.8 4-2.8 1.85 0 3.15.3 5 .95 1.25.45 2.55-.3 2.95-1.45.4-1.25-.15-2.55-1.5-3.05-1.85-.7-3.7-1.05-6.7-1.05-4.95 0-9 2.7-9 7.75 0 4.85 3.05 6.25 6.2 7 3.45.85 7 .85 7 3.7 0 1.9-1.55 3.15-4.65 3.15-2.65 0-3.95-.4-5.5-.95-1.2-.45-2.6.1-3.05 1.45-.4 1.15.1 2.6 1.35 3.05 1.8.65 3.75 1.05 7.15 1.05 5.4 0 10-2.4 10-8 0-5.3-3.55-6.55-7-7.3zM365.22 69.9c-.9-.6-1.55-1.1-1.55-2.95V40.2c0-1.5-1.25-2.75-2.8-2.75-1.5 0-2.75 1.25-2.75 2.75v27.4c0 2.4.9 4.2 2.3 5.25.85.75 2 1.1 2.9 1.1 1.6 0 2.75-.7 2.75-2.3 0-.86-.35-1.4-.85-1.75zM392.12 69.9c-.9-.6-1.35-1.1-1.35-2.95V58.1c0-7.05-2.45-10.35-9.65-10.35-1.75 0-4.15.25-6.1 1-1.55.65-2.65 1.5-2.65 2.75 0 1.2.9 2.15 2.15 2.15.8 0 1.4-.4 2.5-.8.95-.35 2.05-.65 3.7-.65 3.6 0 4.5 1.85 4.5 5.3v1.1h-5.1c-6.4 0-9.55 2.95-9.55 7.35v.4c0 4.45 2.8 7.6 8.9 7.6 2.2 0 5-.45 6.9-2.35.35.65.85 1.2 1.4 1.6.8.5 1.6.75 2.5.75 1.55 0 2.75-.7 2.75-2.3 0-.86-.4-1.4-.9-1.75zm-6.9-4.65c0 3.1-1.85 4.65-4.7 4.65-3.25 0-4.45-1.45-4.45-3.45v-.35c0-1.85 1.1-3.4 4.65-3.4h4.5v2.55zM410.52 47.75c-3.4 0-5.9 1.05-7.65 2.85-.3-.55-.65-1.1-1.15-1.5-.9-.7-2-1.05-2.9-1.05-1.6 0-2.8.7-2.8 2.35 0 .75.4 1.3.9 1.7.9.6 1.5 1.1 1.5 2.95V71.2c0 1.5 1.25 2.75 2.8 2.75 1.55 0 2.8-1.25 2.8-2.75V55.6c1-1.6 2.75-2.65 5.15-2.65 3.35 0 4.1 2.05 4.1 4.65v13.6c0 1.5 1.2 2.75 2.75 2.75s2.8-1.25 2.8-2.75V57c0-5.4-2-9.25-8.3-9.25zM447.47 69.9c-.9-.6-1.35-1.1-1.35-2.95V40.2c0-1.5-1.3-2.75-2.8-2.75-1.55 0-2.8 1.25-2.8 2.75v9.3c-1.65-1.2-3.75-1.75-5.6-1.75-6.75 0-9.05 4.5-9.05 11.5v4.3c0 6.7 2.9 10.4 9.45 10.4 2.2 0 4.6-.75 6.45-2.15.25.4.55.8.85 1.05.95.75 2 1.1 2.9 1.1 1.65 0 2.8-.7 2.8-2.3 0-.86-.4-1.4-.85-1.75zm-6.95-2.4c-1.4 1.15-3 1.7-4.35 1.7-3.5 0-4.75-1.75-4.75-5.3v-5.6c0-3.7 1.3-5.85 4.65-5.85 1.35 0 3.1.55 4.45 1.95v13.1z"/></g>
</svg>