<svg xmlns="http://www.w3.org/2000/svg"
     viewBox="0 0 117.22 32">
    <defs>
        <mask id="mask" x="0" y="10.63" width="16.17" height="21.37" maskUnits="userSpaceOnUse">
            <g id="mask0">
                <path d="m0,10.63v21.37h16.16V10.63H0h0Z" style="fill: #fff; fill-rule: evenodd; stroke-width: 0px;"/>
            </g>
        </mask>
    </defs>
    <g style="mask: url(#mask);">
        <path d="m5.31,10.63c-1.52,0-3.09.15-5.31.15v15.55s2.44.15,4.26-1.22v-10.56h1.63c2.85,0,5.81,1.28,5.81,6.75,0,4.92-2.25,6.81-6.69,6.81H0v3.85c2.23,0,3.79.04,5.31.04,8.26,0,10.85-4.67,10.85-10.7s-2.59-10.67-10.85-10.67"
              style="fill: #e40028; stroke-width: 0px;"/>
    </g>
    <path d="m19.53,6.46c0-3.19.64-3.13,2.95-2.89h0c.79.08,1.78.18,3,.18s2.21-.1,3-.18c2.32-.24,2.95-.31,2.95,2.89v.44h3.25v-1.14c0-4.03-1.89-5.77-9.2-5.77s-9.2,1.73-9.2,5.77v1.14h3.25v-.44Zm28.87,20.95s-2.18-2.94-3.28-5.11c2.79-1.42,3.49-3.74,3.49-5.86,0-6.64-5.68-6.77-8.55-6.77-.84,0-1.72.04-2.6.08h0c-.94.04-1.89.08-2.77.08v3.98h6c2.42,0,3.7,1.04,3.7,3.06,0,2.2-1.26,3.16-3.32,3.16h-2.23v-4.4s-2.75-.11-4.15,1.89v13.88h4.15v-8.11c2.05-.43,2.92,1.28,3.76,2.94h0c.18.36.36.71.55,1.05.08.13.15.27.23.4,1.37,2.4,2.32,4.08,5.17,4.08.55,0,1.16-.06,1.86-.2l.06-3.42c-.74.13-1.34.22-2.07-.72Zm-16.34,4.34h-14.46V9.66h14.46v4.06h-9.75v4.64h8.43v3.72h-8.43v5.57h9.75v4.09Z"
          style="fill: #e40028; fill-rule: evenodd; stroke-width: 0px;"/>
    <path d="m56.94,31.75V12.08h6.37v-1.49h-14.46v1.49h6.4v19.67h1.69Zm14.28-1.36c-5.43,0-6.34-4.69-6.34-9.37h0c0-4.69.91-9.07,6.34-9.07s6.31,4.38,6.31,9.07-.88,9.37-6.31,9.37Zm-7.9-9.37c0-5.65,1.48-10.43,7.9-10.43s7.88,4.78,7.88,10.43-1.45,10.73-7.88,10.73-7.9-4.96-7.9-10.73Zm32.64-10.43v13.5c0,2.39-.33,6.29-5.55,6.29-5.58,0-5.79-3.9-5.79-6.29v-13.5h-1.58v13.5c0,5.31,2.36,7.67,7.25,7.67s7.22-2.36,7.22-7.67v-13.5h-1.55Zm8.38,10.74h6.09c2.73,0,4.57-1.71,4.57-4.64,0-2.68-1.6-4.61-4.37-4.61h-6.3v9.24Zm5.67,1.49l5.38,8.93h1.84l-5.58-9.18c3.18-.34,4.93-2.77,4.93-5.88,0-3.33-1.99-6.1-5.79-6.1h-8.02v21.16h1.57v-8.93h5.67Z"
          style="fill: #e40028; fill-rule: evenodd; stroke-width: 0px;"/>
</svg>