<svg xmlns="http://www.w3.org/2000/svg" viewBox="0 0 121.5 32">
<path fill="#FDC60C" d="M7.5,16.9c0.2,0,0.4,0,0.5,0c0.1,0,0.2,0,0.2,0s0.1-0.1,0.1-0.2c0-0.1-0.1-0.2-0.1-0.3c0-0.1-0.2-0.3-0.3-0.6
	c-0.2-0.3-0.4-0.5-0.4-0.6c0-0.2-0.1-0.2-0.3-0.2c-0.1,0-2.6-0.3-3.1-0.4c-0.4,0-1.1,0-1.2,0c-0.1,0-0.5,0.1-0.5,0.1s-0.3,0-0.4,0
	c-0.1,0-0.5,0-0.6,0c-0.1,0-0.3-0.1-0.4-0.1c-0.1,0-0.1,0.1,0,0.1c0.1,0,0.2,0.1,0.2,0.1s-0.1,0-0.2,0.1c-0.1,0-0.2,0-0.2,0
	S0.7,15,0.7,15l0,0c0,0-0.2,0.1-0.3,0.1c-0.1,0-0.2-0.1-0.3-0.1s-0.3,0-0.3,0s0,0.1,0,0.2c0,0.1,0.2,0.4,0.3,0.5
	c0.2,0.1,0.2,0.2,0.3,0.3c0.1,0.1,0.3,0.3,0.5,0.4S3.7,17,4.1,17s1.7,0.2,1.9,0.2c0.2,0,0.3-0.1,0.4-0.1c0.1,0,0.2,0.1,0.3,0.1
	c0.1,0,0.6,0,0.6,0c0,0,0-0.1,0-0.2C7.3,16.9,7.5,16.9,7.5,16.9"/>
<path fill="#FDC60C" d="M9.8,9.8c-0.1,0-0.2,0-0.4-0.1c-0.1,0-0.2-0.1-0.3-0.1c-0.1,0,0,0.1-0.1,0.1C9,9.6,8.4,9.2,8.2,9
	C7.9,8.9,7.2,8.2,7,8C6.9,7.9,6.4,7.5,6.4,7.4c0-0.1-0.2-0.2-0.2-0.3C6.1,7,5.9,6.8,5.8,6.7c0-0.1,0-0.1,0-0.2c0-0.1,0-0.3,0-0.4
	c0-0.1,0-0.2,0-0.3c0-0.1,0-0.2,0-0.2s0.1-0.1,0.2-0.1c0,0,0-0.1,0.1-0.1c0.1,0,0.2,0.1,0.3,0.1c0.1,0,0.2,0.1,0.3,0.1
	c0.1,0,0.5,0.2,0.6,0.3C7.3,6,7.4,6.1,7.4,6.1l0.2,0.2c0,0,1.8,1.2,1.9,1.4S9.7,8,9.7,8c0,0.1,0,0.6,0.1,0.7c0,0.1,0.1,0.2,0.1,0.2
	c0,0.1,0,0.4,0,0.4c0,0.1,0,0.2,0,0.2C9.9,9.7,9.8,9.8,9.8,9.8"/>
<path fill="#FDC60C" d="M16.5,6.8c0,0.1,0,0.3,0,0.4c0,0.1,0.1,0.4,0,0.4c0,0-0.1-0.1-0.2-0.1c-0.1,0-0.1,0-0.2-0.1
	c-0.1-0.1,0-0.2-0.2-0.2c-0.1,0-0.1,0.1-0.2,0C15.7,7,15.7,7,15.6,6.9c-0.1-0.1-0.1-0.1-0.2-0.2c-0.1-0.1-0.2-0.1-0.3-0.2
	c-0.1,0-0.1-0.2-0.2-0.2s-0.1-0.1-0.2-0.2C14.6,6,14.6,6,14.5,6c0,0-0.2-0.3-0.2-0.5c0-0.2-0.1-0.4-0.2-0.7C14.1,4.4,14,4.1,14,4
	c0-0.1,0-0.2,0-0.2c0,0,0-0.4,0-0.5c0-0.2,0.1-0.2,0.1-0.2s0.1,0,0-0.1c0-0.1,0-0.2,0-0.3c0-0.1,0.1-0.2,0.1-0.2s0.1,0.1,0.1,0.1
	c0-0.1,0.1-0.2,0.1-0.2s0.1,0,0.2-0.1c0-0.1,0-0.1,0-0.1s0-0.1,0-0.1c0,0,0-0.1,0-0.1s0,0,0.1-0.1s0.1-0.1,0.1-0.2
	c0-0.1,0-0.2,0-0.2s0.1-0.3,0.1-0.3s0.2,0.1,0.2,0C15,1,15,1,15,0.9c0-0.1,0-0.1-0.1,0c0,0-0.1,0-0.1,0S15,0.8,15,0.7
	c0-0.1,0-0.2,0-0.2s0,0.1,0.1-0.1c0.1-0.1,0.1-0.2,0.1-0.2c0-0.1,0.1,0,0.1-0.1l0-0.1c0,0,0.1,0,0.2,0c0,0,0.1,0.1,0.2,0.1
	c0.1,0,0.2,0,0.2,0s0.2,0,0.2,0.1c0,0.1,0,0.3,0,0.3c0,0-0.1,0.1-0.1,0.1s0,0.1,0.1,0.1c0,0.1,0,0.4,0.1,0.6s0.2,3.6,0.2,4
	C16.5,5.8,16.5,6.8,16.5,6.8"/>
<path fill="#FDC60C" d="M27,4.5c0,0,0-0.1,0-0.1c0,0-0.1,0,0-0.1c0,0,0.1-0.1,0.1-0.1s0,0,0.1,0c0-0.1,0.1-0.1,0.1-0.1
	c0,0,0.2-0.1,0.2-0.2c0,0,0.1-0.1,0-0.1c0,0,0-0.1,0-0.1c0-0.1-0.1-0.2-0.1-0.2s-0.2,0-0.2,0.1c0,0-0.1,0-0.1,0s-0.1,0-0.2,0
	c-0.1,0-0.1,0-0.1-0.1c0,0,0.1-0.1,0.1-0.1c0,0-0.1,0-0.2,0.1c-0.1,0.1-0.1,0.1-0.1,0.2c0,0-0.1,0-0.1,0c0,0-0.1,0.1-0.1,0.1
	c0,0-0.1,0-0.1,0s0-0.1,0.1-0.1c0,0,0-0.1,0-0.1s0-0.1,0.1-0.1c0,0,0.1-0.1,0.2-0.1c0.1,0,0.1,0,0.1,0c0,0,0,0,0.1,0
	c0,0,0.2-0.2,0.2-0.2s0,0-0.1,0c0,0-0.1,0-0.1-0.1c0,0,0.1,0,0.1,0c0,0,0.1,0,0.1-0.1c0,0,0-0.1,0-0.1S27.1,3,27.1,3
	c0,0,0.1,0,0.1,0c0,0,0-0.1,0-0.2s-0.1,0-0.1,0c0,0,0,0,0,0c0,0-0.1,0-0.1,0.1c0,0,0,0.1,0,0c0,0,0.1,0,0,0.1C27,2.9,27,3,26.9,3
	c0,0-0.2-0.1-0.1-0.1c0,0,0-0.1,0-0.1c0,0-0.2,0.1-0.2,0.2s0,0,0.1,0c0.1,0,0.1,0.1,0.1,0.1c0,0-0.1,0-0.1,0c0,0,0,0-0.1,0
	c0,0-0.1,0.1-0.1,0.1c0,0,0,0.1-0.1,0.1c0,0,0-0.1,0-0.1s-0.1,0-0.1,0.1c0,0.1,0,0.1-0.1,0.1c-0.1,0-0.1-0.1-0.1,0
	c-0.1,0-0.1,0-0.1,0c0,0,0-0.1,0-0.1l0-0.1c0-0.1,0.1-0.1,0.2-0.1c0,0,0-0.1-0.1,0c0,0,0,0-0.1,0.1C26,3.2,26,3.3,26,3.3
	c0,0,0,0.1,0,0.1s-0.1,0.2-0.1,0.2c0,0,0.1,0.1,0,0.1c0,0,0,0-0.1,0c0,0-0.1,0-0.1,0.1c0,0,0,0.1,0,0.1c0,0,0,0,0,0.1
	c0,0,0,0-0.1,0.1c0,0-0.1,0-0.1,0c0,0-0.1,0-0.1,0.1c0,0-0.1,0.1-0.1,0.1c0,0-0.2,0-0.1,0c0,0,0,0,0-0.1c0,0,0.1-0.1,0.1-0.1
	c0,0-0.1-0.1-0.1-0.1c0,0-0.1,0-0.1,0c0,0-0.2,0-0.2,0S24.7,3.9,24.6,4c-0.1,0.1,0,0.1,0,0.1s-0.1,0-0.1,0s-0.1,0.1-0.1,0.1
	c0,0-0.2,0.2-0.2,0.2s0.1,0,0.2-0.1c0.1-0.1,0.1-0.1,0.1,0c0,0-0.1,0.1-0.1,0.2c0,0,0.1-0.1,0.2-0.1s0.2-0.1,0.2-0.1
	c0,0,0.1,0,0.1,0c0,0,0.1,0,0.1,0.1c0,0.1,0,0.1-0.1,0.2s-0.1,0-0.1,0c0,0-0.1,0-0.1,0c0,0-0.1-0.1-0.1-0.1l-0.1,0.1
	c0,0,0.1,0,0.1,0c0,0,0,0.1-0.1,0.2c-0.1,0-0.1-0.1-0.1-0.1l-0.1,0c0,0-0.1,0-0.2,0.1c0,0-0.1,0-0.2,0S24,4.7,24,4.7
	s0.1-0.1,0.1-0.1c0,0,0-0.1,0-0.1l0,0l-0.1,0c-0.1,0-0.2,0.1-0.2,0.1l0,0.1c0,0.1,0,0.1,0,0.2c-0.1,0,0,0,0,0c0,0-0.1,0.1-0.1,0.1
	c0,0-0.1,0-0.2,0.1c0,0,0-0.1,0-0.1s-0.1,0-0.1,0c0,0-0.1,0.1-0.1,0.1c0,0,0-0.1,0-0.1s0,0-0.1,0.1c0,0.1-0.1,0-0.1,0s0,0,0,0.1
	c0,0.1,0,0.1-0.1,0.1c0,0-0.2,0.2-0.2,0.2c0,0,0.1,0,0.2-0.1c0.1,0,0,0.1,0,0.1c0,0-0.1,0.1-0.2,0.1c-0.1,0-0.1,0-0.1,0
	c0,0-0.1,0-0.2,0.1c-0.1,0-0.1,0.1-0.1,0.1c0,0-0.1,0.1-0.1,0.1s0.1,0,0.2,0c0.1,0,0.1,0,0.1,0.1c0,0-0.1,0.1-0.2,0.2
	c0,0-0.1,0-0.1,0c0,0-0.1,0-0.1,0s-0.1,0.1-0.2,0.2c-0.1,0.1,0,0.2,0,0.2s0,0.1-0.1,0.1c-0.1,0-0.1,0-0.1,0c0,0-0.2,0.1-0.2,0.2
	c-0.1,0.1,0.1,0.3,0.3,0.6c0.2,0.3,0.5,0.6,0.6,0.7c0.1,0.1,0.2,0.2,0.3,0.2c0.1,0,0.1,0,0.2-0.1c0.1,0,0.4-0.4,0.5-0.4
	c0,0,0.5-0.4,0.7-0.6c0.2-0.2,1-1.2,1.1-1.2c0,0,0-0.1,0-0.1c0,0,0-0.1,0-0.1c0,0,0.1,0,0.1,0s0.1,0,0.1,0c0,0,0.1,0,0.1-0.1
	s0.3-0.2,0.3-0.2s0-0.1,0-0.1c0,0,0.1,0,0.1,0s0-0.1,0.1-0.1c0,0,0.1-0.1,0.1-0.1c0,0,0-0.1,0-0.1c0,0-0.1,0-0.1,0.1
	c-0.1,0-0.1,0.1-0.1,0.1c0,0-0.1,0-0.1,0s0,0,0-0.1c0,0,0,0,0-0.1c0,0,0,0,0.1-0.1s0.1,0,0.1,0c0,0,0.1,0,0.2-0.1
	c0.1-0.1,0.1,0,0.1,0c0,0,0.1,0,0.1,0c0.1,0,0.1,0,0.1,0s-0.1,0-0.1,0c0,0,0-0.1,0-0.1s0.2-0.1,0.2-0.1c0,0,0.2,0,0.2,0
	c0,0,0,0,0-0.1c0,0,0-0.1,0-0.1c0,0,0.1,0,0.1,0s0.1,0,0,0c0,0-0.1-0.1,0-0.1c0,0,0.1,0,0.1,0c0,0,0,0,0.1,0
	C26.9,4.5,26.9,4.5,27,4.5C26.9,4.5,27,4.5,27,4.5 M24.1,5.1C24.1,5.1,24,5.1,24.1,5.1c-0.1,0-0.2,0-0.2,0C23.9,5.1,24,5,24.1,5.1
	C24,5,24.1,5.1,24.1,5.1 M24.3,4.9c0,0-0.1,0.1-0.1,0.1c0,0-0.1-0.1-0.1-0.1S24.2,4.9,24.3,4.9C24.2,4.8,24.3,4.9,24.3,4.9
	 M25.9,4.1c0,0-0.1-0.1,0-0.1c0,0,0-0.1,0.1-0.1c0-0.1,0.1-0.1,0.1-0.1c0.1,0,0,0,0.1,0c0.1-0.1,0.1,0,0.1,0c0,0-0.1,0.1-0.1,0.1
	c0,0-0.1,0-0.1,0.1C26,4,25.9,4.1,25.9,4.1 M26.5,4.4c0,0-0.1,0-0.1,0c0,0,0,0.1,0,0.1c0,0,0,0.1,0,0.1c0,0-0.1,0-0.1,0
	s-0.1,0-0.1,0s0-0.1,0-0.1s0-0.1,0.1-0.1s0,0,0-0.1s0,0,0-0.1c0.1-0.1,0.1-0.1,0.1-0.1C26.4,4.3,26.5,4.4,26.5,4.4 M26.8,4
	C26.8,4,26.7,4,26.8,4c-0.1,0.1-0.1,0.1-0.1,0.2c0,0,0,0,0,0.1s-0.1,0.1-0.1,0c0,0,0-0.1-0.1-0.1c0,0-0.1,0-0.1,0l0-0.1
	c0.1,0,0.1-0.1,0.1-0.1s0.1,0,0.1,0C26.7,3.9,26.8,3.9,26.8,4C26.8,3.9,26.9,4,26.8,4"/>
<path fill="#FDC60C" d="M10.9,22.6c-0.1-0.1-0.3-0.6-0.4-0.8c-0.2-0.2-0.4-0.6-0.5-0.7c-0.2,0-0.6-0.1-0.7-0.1c-0.1,0-0.7,0.3-0.9,0.4
	s-1,0.8-1.2,0.9c-0.2,0.1-0.5,0.4-0.7,0.6c-0.2,0.1-0.8,0.7-1,1c-0.2,0.3-0.8,0.9-1,1c-0.2,0.1-0.2,0.4-0.3,0.5
	c-0.1,0.1-0.4,0.5-0.4,0.6c-0.1,0.1-0.2,0.2-0.1,0.2s0.2-0.2,0.2-0.2C3.8,26.1,4,26,4,26s0.1,0,0.1,0c0,0-0.1,0.2-0.2,0.3
	c-0.1,0.1-0.2,0.2-0.2,0.3l-0.1,0.1c0,0,0.2-0.1,0.1,0c0,0.1-0.1,0.2-0.1,0.2c0,0.1,0.1,0,0.1,0c0-0.1,0.1-0.1,0.1-0.1s0,0,0.1,0.1
	c0,0,0.1,0,0.1,0.1c0,0-0.1,0.1-0.1,0.2c0,0,0,0.1,0,0.2c0,0,0.1,0,0.1,0s0.1-0.1,0.1-0.1C4,27.1,4,27,4,27c0,0,0,0,0.1-0.1l0,0
	c0,0-0.1,0.2-0.1,0.2c0,0-0.2,0.2-0.2,0.3c0,0-0.1,0.1-0.1,0.1s0,0.1,0.1,0.1c0,0,0.1,0,0.1,0s0.1,0,0,0c0,0.1-0.1,0.2,0,0.2
	c0,0,0.1-0.1,0.2-0.1c0-0.1,0.1-0.1,0.1-0.1l0-0.1c0,0,0,0,0.1,0c0,0,0.2-0.1,0.2,0s-0.1,0.2-0.1,0.2c0,0,0,0.1,0,0.2
	c0,0.1-0.1,0-0.1,0c0,0,0,0.1-0.1,0.1c0,0,0,0.1,0.1,0.1c0,0,0.1,0,0.2,0c0,0,0.1,0,0.1,0c0,0,0-0.1,0-0.1c0,0,0-0.1,0-0.1
	c0,0,0-0.1,0.1-0.1s0.1-0.2,0.1-0.2c0,0.1,0,0.1,0,0.2c0,0.1,0,0.1,0,0c0,0,0.1-0.1,0.1-0.1s0.1,0,0,0c0,0.1-0.1,0.1-0.1,0.2
	c0,0.1,0,0.2,0,0.2c0,0,0.2-0.1,0.2-0.2c0,0,0.1-0.1,0.1-0.1s0,0.2,0,0.1s0.1-0.1,0.1-0.1c0.1,0,0.1-0.2,0.1-0.2s0.1,0,0.1,0.1
	c0,0,0,0,0.1,0c0,0,0,0,0.1-0.1c0.1-0.1,0.1-0.1,0.2-0.1l0,0c0,0-0.2-0.1-0.1-0.2C5.8,27,5.9,27,5.9,27c0,0,0,0.1,0.1,0.1
	c0,0,0,0,0.1-0.1c0.1-0.1,0.4-0.4,0.5-0.5c0.1-0.1,0.2-0.3,0.2-0.3C6.9,26.1,7,26.1,7,26.1s-0.1,0-0.2,0S6.7,26,6.8,26
	c0,0,0-0.1,0.1-0.1C7,25.9,7,25.8,7,25.8c0.1,0,0.1,0,0,0.1c0,0,0,0.1,0,0.1c0,0,0.1-0.1,0.2-0.2c0.1-0.1,0.2-0.1,0.2-0.2
	c0,0,0.1-0.2,0.1-0.2l0.2-0.1c0,0,0.1-0.1,0.2-0.1c0.1-0.1,0.2-0.3,0.2-0.3c0,0,0,0,0.1-0.1c0.1-0.1,0.1-0.1,0.2-0.2
	c0,0,0.1-0.1,0.1,0c0,0.1-0.1,0.1,0,0.1s0.1-0.1,0.1-0.1c0,0,0.1-0.1,0.1-0.1c0,0,0.1-0.1,0.1-0.1s0,0,0.1,0
	c0.1-0.1,0.3-0.3,0.3-0.3c0,0,0,0,0-0.1c0.1-0.1,0.2-0.1,0.2-0.1c0.1,0,0,0.1,0,0.1c0.1,0,0,0,0.2-0.1c0.1-0.1,0.2-0.1,0.2-0.1
	c0,0,0.1-0.2,0.2-0.2c0.1-0.1,0.2-0.2,0.3-0.2c0.1,0,0.1-0.1,0.2-0.2c0,0,0.2-0.1,0.2-0.1c0,0,0.1,0,0.1,0
	C11,22.8,11,22.7,10.9,22.6 M4.5,26.2c0,0-0.1,0.1-0.2,0.2c-0.1,0-0.1,0.1-0.1,0.1s0,0-0.1,0.1c-0.1,0.1-0.1,0.2-0.2,0.2
	c0,0-0.1,0-0.1-0.1c0,0,0-0.1,0.1-0.1c0.1-0.1,0.1-0.1,0.2-0.2c0.1-0.1,0.1-0.1,0.2-0.2C4.5,26,4.5,26.1,4.5,26.2 M4.9,25.9
	c0,0.1,0,0.1,0,0.1c0,0-0.1,0.1-0.1,0.1c0,0-0.2,0-0.1,0c0-0.1,0-0.1,0-0.1C4.8,26,4.8,25.9,4.9,25.9C4.9,25.9,5,25.9,4.9,25.9"/>
<path fill="#128287" d="M41,24.5h-3v-1.3c-0.4,0.6-0.9,0.9-1.3,1.2c-0.4,0.2-1,0.4-1.7,0.4c-0.9,0-1.6-0.3-2.1-0.8
	c-0.5-0.5-0.7-1.3-0.7-2.4v-5.3h3.2v4.6c0,0.5,0.1,0.9,0.3,1.1c0.2,0.2,0.5,0.3,0.8,0.3c0.4,0,0.7-0.1,0.9-0.4
	c0.2-0.3,0.4-0.8,0.4-1.6v-4H41V24.5z"/>
<path fill="#128287" d="M43.2,16.2h3v1.4c0.3-0.6,0.6-1,0.9-1.2c0.3-0.2,0.7-0.3,1.1-0.3c0.5,0,1,0.1,1.5,0.4l-1,2.3
	c-0.4-0.2-0.7-0.2-0.9-0.2c-0.4,0-0.7,0.2-1,0.5c-0.3,0.5-0.5,1.4-0.5,2.7v2.8h-3.2L43.2,16.2L43.2,16.2z"/>
<path fill="#128287" d="M59.8,24.5h-3v-1.3c-0.4,0.6-0.9,0.9-1.3,1.2c-0.4,0.2-1,0.4-1.7,0.4c-0.9,0-1.6-0.3-2.1-0.8
	c-0.5-0.5-0.7-1.3-0.7-2.4v-5.3h3.2v4.6c0,0.5,0.1,0.9,0.3,1.1c0.2,0.2,0.5,0.3,0.8,0.3c0.4,0,0.7-0.1,0.9-0.4
	c0.2-0.3,0.4-0.8,0.4-1.6v-4h3.2L59.8,24.5L59.8,24.5z"/>
<path fill="#128287" d="M61.5,16.2h3v1.2c0.4-0.5,0.9-0.9,1.3-1.1c0.4-0.2,1-0.3,1.6-0.3c0.7,0,1.2,0.1,1.6,0.4s0.7,0.6,0.9,1
	c0.5-0.5,1-0.9,1.4-1.1c0.4-0.2,0.9-0.3,1.5-0.3c0.9,0,1.6,0.3,2.1,0.8c0.5,0.5,0.8,1.4,0.8,2.5v5.2h-3.2v-4.7
	c0-0.4-0.1-0.6-0.2-0.8c-0.2-0.3-0.5-0.4-0.8-0.4c-0.4,0-0.7,0.1-0.9,0.4c-0.2,0.3-0.3,0.7-0.3,1.3v4.3H67V20c0-0.4,0-0.6-0.1-0.7
	c-0.1-0.2-0.2-0.4-0.4-0.5c-0.2-0.1-0.4-0.2-0.6-0.2c-0.4,0-0.7,0.1-0.9,0.4s-0.4,0.7-0.4,1.4v4.2h-3.2V16.2z"/>
<path fill="#FDC60C" d="M25.3,13.2h-0.1C25.3,13.2,25.3,13.3,25.3,13.2c0,0.1,0,0.1,0,0.2L25.3,13.2z"/>
<path fill="#FDC60C" d="M32.5,10c-0.1,0-0.3,0-0.3,0s-0.2,0-0.2,0C32,10,31.9,10,31.9,10c0,0-0.1-0.1-0.1-0.1s0.2,0,0.2-0.1
	c0.1,0,0.1-0.1,0.2-0.1c0.1-0.1,0.1,0,0.2-0.1c0,0,0-0.1-0.1-0.1s-0.1,0-0.1,0c0,0-0.1,0-0.2,0c-0.1,0-0.1,0.1-0.2,0.1s-0.1,0-0.2,0
	c-0.1,0-0.1,0-0.3,0.1c-0.2,0-0.2,0.1-0.3,0.1c-0.1,0-0.1,0-0.2,0c0,0-0.1,0.1-0.2,0.1s-0.1-0.1-0.1-0.1c0,0,0.1-0.1,0.2-0.1
	s0.2,0,0.2,0s0.1-0.1,0.2-0.1c0,0,0.1,0,0.2,0c0,0,0.1-0.1,0.1-0.1c0,0,0.2,0,0.2,0c0.1,0,0.1,0,0.1,0s0.1,0,0.2,0
	c0.1,0,0.1,0,0.1-0.1c0,0,0.2,0,0.2,0c0.1,0,0.1,0,0.2,0c0.1,0,0-0.1,0-0.1c0,0-0.1,0-0.2,0c-0.1,0-0.1,0-0.2,0.1
	c-0.1,0-0.2,0-0.2,0c0,0,0-0.1,0.1-0.1c0.1,0,0.1-0.1,0.1-0.2c0.1,0,0.1-0.1,0.1-0.1s-0.1,0-0.1,0c0,0-0.2,0-0.2,0
	c-0.1,0-0.2,0-0.2,0.1c-0.1,0-0.2,0-0.3,0.1c-0.2,0.1-0.1,0-0.1,0C31.5,9,31.6,9,31.7,9c0,0,0.1-0.1,0.1-0.1c0,0,0.1-0.1,0.2-0.1
	c0.1,0,0.1-0.1,0.2-0.1c0.1,0,0-0.1,0-0.1s-0.1,0-0.2,0c0,0-0.1,0.1-0.1,0.1c0,0-0.2,0-0.2,0S31,8.9,30.8,9
	c-0.2,0.1-0.9,0.3-1.2,0.4c-0.3,0.1-1.9,0.7-2.1,0.8c-0.2,0.1-0.3,0.1-0.6,0.2c-0.3,0.1-1,0.3-1.2,0.3c-0.4,0.1-0.8,0.2-0.8,0.2
	c0.2,0,0.6,0,0.8,0c0,0,0.1,0,0.2,0s0,0.1,0,0.1c0,0-0.1,0.1-0.2,0.1c-0.2,0-0.4,0.1-0.6,0.1s-0.5,0-0.6,0c-0.1,0,0,0-0.1,0.1
	c0,0.1-0.1,0.1-0.1,0.2c0,0,0,0.1,0,0.1h3.2l0.7,1.3c0,0,0,0,0,0c0.1,0,0.1,0,0.2-0.1c0.1-0.1,0.5-0.2,0.6-0.3
	c0.1,0,0.1-0.1,0.2-0.1c0.1,0,0.1,0,0.1,0c0.1,0,0.1,0,0.2-0.1c0,0,0.1,0,0.1,0c0,0,0,0,0-0.1c0,0,0.1,0,0.1,0c0,0,0.1,0,0.1,0
	c0,0,0-0.1,0-0.1s0-0.1,0-0.1c0,0,0-0.1,0-0.1s0.1,0,0.1,0c0,0,0.1,0,0.1,0h0.1c0,0,0,0,0-0.1c0,0,0.1-0.1,0.1-0.1c0,0,0-0.1,0-0.2
	c0-0.1,0.2-0.1,0.3-0.2c0.1,0,0.1,0,0.1,0l0.1-0.1c0,0,0.2,0,0.2,0c0.1,0,0.2,0,0.3,0c0.1,0,0.1,0,0.2,0c0.1,0,0.1,0,0.2-0.1
	c0.1,0,0.2-0.2,0.2-0.2s-0.1,0-0.1,0s0,0,0-0.1c0,0,0.1,0,0.1,0s0.1,0,0.1,0c0,0,0.2,0,0.2,0s0-0.1,0-0.1c-0.1,0-0.1,0-0.1,0
	s-0.1,0-0.2,0c-0.1,0-0.1,0-0.2,0c-0.1,0-0.1,0-0.1-0.1c0,0,0-0.1-0.1-0.1s0.1-0.1,0.1-0.1c0,0,0.1,0,0.1,0s0.2,0,0.2,0
	c0,0-0.1,0-0.2,0s0,0.1,0,0.1s0.1,0,0.2,0c0.1,0,0.1,0,0.1,0c0,0,0-0.1,0.1-0.1c0.1,0,0.1,0,0.2,0c0.1,0,0-0.1,0-0.1s0-0.1,0.1-0.2
	c0.1,0,0.1,0,0.1-0.1C32.7,9.9,32.6,10,32.5,10 M29.1,10.8c0,0,0-0.1,0-0.1l0.2,0C29.2,10.7,29.1,10.8,29.1,10.8 M29.8,11.5
	c0,0-0.1,0.1-0.1,0.1c-0.1,0-0.2,0-0.2,0.1c-0.1,0-0.2,0-0.2,0s0-0.1,0-0.1c0,0,0.1-0.1,0.2-0.1c0.1,0,0,0,0.2,0
	C29.7,11.5,29.8,11.5,29.8,11.5 M30.1,10.9L30.1,10.9C30,10.9,30,11,30,11l-0.2,0.1c0,0-0.1,0-0.1-0.1c0-0.1,0-0.1,0.1-0.2
	C29.9,10.8,30,10.8,30.1,10.9C30.2,10.8,30.1,10.9,30.1,10.9 M30.4,10.7C30.4,10.7,30.4,10.7,30.4,10.7
	C30.3,10.7,30.3,10.8,30.4,10.7c0,0.1,0,0.1,0,0.1c0,0,0,0,0,0c0,0-0.1,0.1-0.1,0.1c0,0,0-0.1,0-0.1C30.3,10.8,30.3,10.7,30.4,10.7
	c-0.1,0-0.1,0-0.1,0c0,0,0-0.1,0.1-0.1c0,0,0.1,0,0.1,0s0,0,0,0s0.1,0,0.1,0c0,0,0,0.1,0,0.1S30.5,10.6,30.4,10.7
	C30.5,10.7,30.4,10.7,30.4,10.7 M30.5,11.1C30.4,11.1,30.4,11,30.5,11.1c0-0.1,0-0.1,0-0.2c0-0.1,0.1-0.1,0.1-0.1c0,0,0.1,0,0.1,0
	c0,0.1,0,0,0,0.1c0,0.1,0,0.1,0,0.1C30.6,11,30.6,11.1,30.5,11.1 M31.4,10.2c0.1-0.1,0.1-0.1,0.2-0.1s0.1,0.1,0.1,0.1
	C31.6,10.3,31.5,10.3,31.4,10.2C31.4,10.3,31.3,10.3,31.4,10.2 M30.8,10.4c0,0,0.1,0,0.1,0s0.1,0,0.1,0C31,10.5,30.9,10.5,30.8,10.4
	C30.8,10.5,30.7,10.4,30.8,10.4 M30.8,10.7C30.8,10.8,30.8,10.8,30.8,10.7c-0.1-0.1-0.1-0.1,0-0.1c0.1,0,0.1,0,0.1,0c0,0,0,0,0.1,0
	c0,0,0.1,0,0.1,0c0,0,0,0,0,0s0,0,0,0.1c0,0,0,0-0.1,0C31,10.7,31,10.7,30.8,10.7C30.9,10.7,30.9,10.7,30.8,10.7 M31.8,10.8
	C31.8,10.8,31.9,10.9,31.8,10.8c0,0.1,0,0.1-0.1,0.2c-0.1,0-0.2,0.1-0.3,0.1c-0.1,0-0.2,0-0.3,0c-0.1,0-0.1,0-0.2,0
	c-0.1,0-0.1,0-0.1-0.1c0,0,0-0.1,0.1-0.1c0,0,0.1,0,0.1,0c0.1,0,0.1,0,0.1,0c0.1,0,0.1,0,0.2,0c0.1,0,0.1-0.1,0.1-0.1s0,0,0,0
	s-0.1,0-0.2,0c0,0,0,0,0-0.1c0,0,0-0.1,0.1-0.1c0.1,0,0.1,0,0.1,0c0,0,0,0,0,0c0,0,0.1,0,0.1,0c0,0,0,0.1,0,0.1c0,0,0,0.1,0,0.2
	c0,0,0,0.1,0.1,0C31.7,10.8,31.8,10.8,31.8,10.8"/>
<path fill="#128287" d="M26.9,22.6h-4l-0.6,1.9h-3.6l4.3-11.5h3.9l4.3,11.5h-3.7L26.9,22.6z M26.2,20.1L24.9,16l-1.2,4.1H26.2z"/>
<path fill="#FDC60C" d="M16.1,29.5c0,0.1-0.1,0.2-0.1,0.3c0,0.1-0.1,0.5-0.1,0.6c0,0.1-0.1,0.2-0.1,0.2c0,0-0.1,0-0.2,0s0,0-0.1,0
	c-0.1,0-0.2,0-0.2,0.1c0,0,0,0.5,0,0.6c0,0.1,0,0.2-0.1,0.2c0,0-0.1,0.1-0.1,0.2c0,0.1,0,0.2,0,0.2c0,0.1,0.1,0.1,0,0.2
	c0,0-0.1,0-0.1,0c0,0,0-0.2,0-0.3s-0.1-0.1-0.2,0c-0.1,0-0.1,0.1-0.1,0.2s0,0,0,0s0.1,0,0.1,0c0,0.1-0.1,0.1-0.1,0.2
	c0,0-0.1-0.1-0.1-0.1s-0.2-0.1-0.2,0c0,0.1,0,0.2-0.1,0.2c0,0,0,0-0.1,0c-0.1,0-0.1-0.1-0.1-0.1c0,0,0-0.1-0.1-0.1s-0.2,0-0.2-0.1
	c0-0.1,0-0.2,0-0.3c0-0.1,0-0.3,0-0.4c0,0-0.1-0.1-0.1,0c0,0.1-0.1,0.1-0.1,0c0-0.1,0.1-0.3,0.1-0.3s0.1-0.1,0.1-0.1
	c0,0,0-1.4,0.1-1.8c0-0.4,0.1-1.8,0.2-2c0.1-0.2,0.1-0.3,0-0.4c0,0,0.1-0.1,0.1,0c0,0,0,0.1,0,0.2c0,0,0,0,0.1-0.2
	c0.1-0.2,0.3-0.9,0.3-1c0-0.1,0-0.2,0-0.2c0-0.1,0-0.1,0-0.1c0-0.1,0.1,0,0.1-0.1c0-0.1,0.1,0,0.1-0.2c0-0.1,0.1-0.3,0.1-0.3l0-0.1
	l0,0.2c0,0,0.1,0,0.2-0.1c0-0.1,0-0.1,0-0.2s0.1-0.2,0-0.1c-0.1,0-0.1,0.1-0.1,0c0-0.1,0-0.2,0-0.2c0,0,0.1-0.1,0.1-0.2
	c0,0,0.1,0,0.1,0c0,0,0.1,0.1,0.2,0.1c0.1,0,0.2,0,0.2,0c0,0.1,0.1,0.2,0.2,0.2c0,0,0.1-0.2,0.2-0.1c0,0.1,0,0.1,0.1,0.2
	c0,0,0.3,0.2,0.4,0.3c0.1,0.1,0.3,0.3,0.4,0.4c0.1,0.1,0.2,0.2,0.2,0.2s-0.2,0.9-0.3,1.2c-0.1,0.3-0.1,0.6-0.1,0.7
	c0,0-0.1,0.1-0.1,0c0,0,0.1-0.1,0-0.1c0,0-0.1,0.2-0.2,0.2c0,0,0,0.2,0,0.2s0.1,0,0.1,0s0-0.2,0.1-0.1c0,0,0,0.1,0,0.2
	c0,0.1,0,0.2-0.1,0.2c-0.1,0-0.1,0.2,0,0.1c0,0,0.1,0,0.1,0l0,0.1c0,0-0.1,0.1-0.1,0.1c0,0,0-0.1-0.1,0c-0.1,0.1,0,0.2-0.1,0.3
	c0,0.1,0,0.2-0.1,0.3c0,0.1,0,0.2,0,0.2c0-0.1,0.1-0.1,0.1,0c0,0-0.1,0.1-0.1,0.2c0,0,0,0.2-0.1,0.2s-0.1-0.1-0.1,0
	c0,0.1-0.1,0.2,0,0.2s0.2,0,0.2,0C16.1,29.4,16.1,29.5,16.1,29.5"/>
<path fill="#FDC60C" d="M16.9,21.5c0.1-0.1,0.2-0.1,0.2,0c0,0.1,0,0.4,0,0.4s0.2,0,0.2-0.1s0-0.2,0.1-0.2c0.1,0,0.3,0,0.3,0l0-0.2
	c0,0,0.2,0,0.2,0c0.1,0,0.1,0.1,0.1,0.1l0.1-0.1l0.2,0l3.7-9.9c-0.1-0.1-0.2-0.3-0.2-0.4c-0.8-1.4-2.3-2.2-3.2-2.4
	c-0.9-0.2-2.1-0.1-2.3-0.1c-0.2,0-0.7,0.3-0.8,0.3c-0.1,0-0.7,0.3-0.7,0.3l0.1,0.1c0,0,0,0.1,0,0.2c-0.1,0-0.2,0.2-0.3,0.2
	c-0.1,0-0.3,0.2-0.3,0.2S14.1,9.8,14,9.7c-0.2,0-0.1,0-0.2-0.1c-0.1,0-0.2,0-0.3,0c-0.1,0-0.4,0.1-0.5,0.1c-0.1,0-0.2,0.2-0.4,0.3
	c-0.2,0.2-0.7,0.6-0.9,0.9c-0.2,0.3-0.4,0.6-0.5,0.8c-0.1,0.1-0.2,0.1-0.2,0.1c-0.1,0-0.2,0.5-0.3,0.9c-0.1,0.4-0.2,1.3-0.1,2.3
	c0.1,1,0.7,2.7,1.3,3.8c0.5,1.1,1.4,1.8,2.4,2.3c1,0.6,2.3,0.6,2.5,0.6s0.1,0,0.1-0.1C16.8,21.7,16.8,21.6,16.9,21.5 M13.5,10.4
	c-0.1,0-0.2,0.1-0.2,0.1s-0.1-0.1,0-0.1c0,0,0-0.1,0.1-0.1c0.1,0,0.1,0,0.1,0C13.5,10.2,13.6,10.4,13.5,10.4L13.5,10.4z M14.8,10.1
	c-0.1,0-0.1,0.1-0.1,0.1c0,0,0,0.1-0.1,0.1c0,0-0.1,0-0.2,0c-0.1,0,0-0.1,0-0.1l0.1-0.1c0,0,0-0.1,0.1-0.1c0.1,0,0.1,0,0.2,0
	C14.9,10,14.9,10.1,14.8,10.1 M15.2,9.8c0-0.1,0-0.1,0.1-0.1c0,0,0.1,0,0.1,0L15.2,9.8z"/>
<polygon fill="#128287" points="75.1,13 85.8,13 85.8,15.8 82.2,15.8 82.2,24.4 78.7,24.4 78.7,15.8 74.2,15.8 "/>
<path fill="#128287" d="M84.2,20.3c0-1.3,0.4-2.3,1.3-3.1c0.8-0.8,2-1.2,3.5-1.2c1.7,0,2.9,0.5,3.8,1.4c0.7,0.8,1,1.7,1,2.9
	c0,1.3-0.4,2.3-1.3,3.1c-0.8,0.8-2,1.2-3.5,1.2c-1.3,0-2.4-0.3-3.2-1C84.7,22.8,84.2,21.7,84.2,20.3 M87.4,20.3
	c0,0.7,0.2,1.3,0.4,1.6c0.3,0.4,0.7,0.5,1.1,0.5c0.5,0,0.8-0.2,1.1-0.5c0.3-0.4,0.4-0.9,0.4-1.7c0-0.7-0.2-1.2-0.4-1.6
	c-0.3-0.4-0.7-0.5-1.1-0.5c-0.5,0-0.8,0.2-1.1,0.5C87.5,19,87.4,19.6,87.4,20.3"/>
<path fill="#128287" d="M103.6,24.4h-3v-1.3c-0.4,0.6-0.9,0.9-1.3,1.2c-0.4,0.2-1,0.4-1.7,0.4c-0.9,0-1.6-0.3-2.1-0.8
	c-0.5-0.5-0.7-1.3-0.7-2.4v-5.3H98v4.6c0,0.5,0.1,0.9,0.3,1.1c0.2,0.2,0.5,0.3,0.8,0.3c0.4,0,0.7-0.1,0.9-0.4
	c0.2-0.3,0.4-0.8,0.4-1.6v-4h3.2V24.4z"/>
<path fill="#128287" d="M105.8,16.1h3v1.4c0.3-0.6,0.6-1,0.9-1.2c0.3-0.2,0.7-0.3,1.1-0.3c0.5,0,1,0.1,1.5,0.4l-1,2.3
	c-0.4-0.2-0.7-0.2-0.9-0.2c-0.4,0-0.7,0.2-1,0.5c-0.3,0.5-0.5,1.4-0.5,2.7v2.8h-3.2L105.8,16.1L105.8,16.1z"/>
<path fill="#128287" d="M112.5,22.1l3.2-0.3c0.1,0.4,0.3,0.6,0.5,0.8c0.2,0.2,0.5,0.2,0.9,0.2c0.4,0,0.8-0.1,1-0.3
	c0.2-0.1,0.3-0.3,0.3-0.5c0-0.2-0.1-0.4-0.4-0.5c-0.2-0.1-0.6-0.2-1.4-0.3c-1.1-0.2-1.9-0.4-2.3-0.5c-0.4-0.2-0.8-0.4-1.1-0.8
	c-0.3-0.4-0.4-0.8-0.4-1.3c0-0.5,0.2-1,0.5-1.4s0.8-0.7,1.3-0.9c0.6-0.2,1.3-0.3,2.2-0.3c1,0,1.7,0.1,2.2,0.2
	c0.5,0.2,0.9,0.4,1.2,0.7c0.3,0.3,0.6,0.7,0.8,1.3l-3,0.3c-0.1-0.3-0.2-0.5-0.4-0.6c-0.2-0.2-0.6-0.2-0.9-0.2
	c-0.4,0-0.6,0.1-0.8,0.2c-0.2,0.1-0.2,0.3-0.2,0.5c0,0.2,0.1,0.4,0.3,0.5c0.2,0.1,0.7,0.2,1.4,0.3c1.1,0.1,1.8,0.3,2.4,0.5
	c0.5,0.2,0.9,0.5,1.2,0.9c0.3,0.4,0.4,0.8,0.4,1.3c0,0.5-0.1,0.9-0.4,1.4c-0.3,0.4-0.7,0.8-1.4,1.1c-0.6,0.3-1.5,0.4-2.5,0.4
	c-1.5,0-2.6-0.2-3.2-0.6C113.1,23.6,112.7,22.9,112.5,22.1"/>
</svg>
