<svg xmlns="http://www.w3.org/2000/svg" width="517.553" height="252.447" viewBox="48.478 103.112 469.199 189.335" style="text-align:center"><g data-name="Ebene 2" style="text-align:center;fill:#c06;fill-opacity:1"><g data-name="ltur Pfade Din Round" style="text-align:center;fill:#c06;fill-opacity:1"><path style="text-align:center;fill:#c06;fill-opacity:1" d="M130 251.36c-35 0-47.59-16-47.59-49.74l.36-55.85c0-1.23-.92-1.84-2.15-1.84h-1.19c-11.05 0-17.19-6.45-17.19-16s6.14-16 17.19-16h1.23c1.23 0 2.15-.61 2.15-1.84V88.07c0-14.12 8.9-22.72 21.49-22.72 12.28 0 21.18 8.6 21.18 22.72v22.1a1.62 1.62 0 0 0 1.84 1.84H139c11 0 17.19 6.45 17.19 16s-6.14 16-17.19 16h-11.68a1.62 1.62 0 0 0-1.84 1.84l-.36 54.63c0 8.9 3.38 12.59 11.36 13.51 13.51 1.54 19 9.82 19 19 0 10.44-7.37 18.42-23.64 18.42H130Zm224.15-22.95c0 14.12-8.9 22.72-21.18 22.72-12.59 0-21.49-8.6-21.49-22.72l.36-68.75c0-33.77 12.59-49.74 47.59-49.74h1.84c16.27 0 23.64 8 23.64 18.42 0 9.21-5.53 17.5-19 19-8 .92-11.36 4.6-11.36 13.51zm-112.3 24.04c32.85 0 51.73-23 51.73-55.26l.36-62.76c0-14.12-9.21-22.72-21.49-22.72h-.3c-12.28 0-21.18 8.6-21.18 22.72l-.36 54.47v.86c-.27 15.78-4.92 26.14-19.68 26.15h-.06c-14.76 0-22.41-10.38-22.68-26.15v-.86l.36-54.47c0-14.12-8.9-22.72-21.18-22.72h-.3c-12.28 0-21.49 8.6-21.49 22.72l-.37 62.76c0 32.24 19.89 55.26 52.73 55.26zM516.69 57.29c-2.42-16.19-9.38-30-21.68-40.77C480.55 3.83 463.56-1.68 444.37.45a62.87 62.87 0 0 0-41.5 21.62q-30.22 39.13-8 80 25.23 41 50.5 82l6.09 9.87c.63-.95 1-1.48 1.34-2 3.94-6.56 7.81-13.16 11.82-19.67q17.1-27.78 34.28-55.51c3.92-6.36 8.21-12.53 11.56-19.18a65.64 65.64 0 0 0 6.23-40.29m-19.48 9.12c-1.08 1.86-8.31-2.94-23.27-4.36-1.64-.16-3.18-.25-4.65-.3a25.4 25.4 0 0 1 5.29 3.63c9.45 8.49 10.58 23.34 8.12 24.51-1.94.92-5.2-7.12-16.73-16.75A79 79 0 0 0 457.5 67a177 177 0 0 0 .37 46.6c0 4.34-2.86 7.2-6.83 7.2a6.68 6.68 0 0 1-4.16-1.37 7.39 7.39 0 0 1-2.58-5.83 201 201 0 0 1-1.51-27.45 198 198 0 0 1 1.27-19.91 79 79 0 0 0-9.91 3.57c-13.77 6-19.15 12.82-20.75 11.39-2-1.81 3.21-15.75 14.66-21.25a25 25 0 0 1 4.6-1.66l-1.77-.29c-14.93-1.67-23 1.54-23.67-.5-.85-2.58 10.65-12 23.32-11.09a27 27 0 0 1 10.72 3.25c-.83-.67-1.69-1.36-2.62-2-12-9-20.62-10.29-20.18-12.38.57-2.66 15.27-5 25.73 2.21a28.36 28.36 0 0 1 9.16 11.05A27.1 27.1 0 0 1 461 41c10.69-6.87 25.31-4 25.79-1.35.38 2.11-8.24 3.13-20.58 11.71l-.59.42a27.1 27.1 0 0 1 11.06-1c12.58 1.67 21.89 13.29 20.53 15.63M45.74 251.42C11.66 251.42 0 234.53 0 204.14V88c0-14.08 8.9-22.68 21.49-22.68C33.77 65.32 43 73.92 43 88v112.46c0 8.6 3.07 12.28 9.82 13.51C65.08 216.12 70 223.18 70 232.7c0 10.44-6.75 18.73-22.41 18.73h-1.85z" class="cls-1" transform="translate(48.478 83.346)scale(.90657)" data-name="ltur Logo"/></g></g></svg>