<svg data-name="Ebene 1" xmlns="http://www.w3.org/2000/svg" viewBox="0 0 209.05 74.07"><circle cx="179.51" cy="30.16" r="28.68" style="fill:#fc0"/><path d="M13.14 39.7h-.11L6.99 20.85H0l9.64 27.22h6.41l9.53-27.22h-6.41L13.13 39.7Zm24.67-27.06h-6.46v8.21H27.7v5.14h3.65v15.57c0 4.82 3.39 6.84 7.57 6.84.95 0 3.33-.16 4.77-.53v-5.51c-1.27.21-2.01.27-3.34.27-1.48 0-2.54-.58-2.54-2.6V26h5.88v-5.14h-5.88v-8.21Zm20.44 7.73c-5.99 0-12.24 4.03-12.24 11.39v6.2c0 6.94 5.88 10.65 12.44 10.65 5.99 0 12.24-4.02 12.24-11.39v-5.56c0-6.94-5.88-11.28-12.44-11.28m5.88 17.42c0 3.92-2.97 5.35-5.67 5.35-3.33 0-5.88-1.96-5.88-5.24v-6.67c0-3.92 2.97-5.35 5.67-5.35 3.33 0 5.88 1.91 5.88 5.19v6.73ZM90.34 36c0 4.61-2.01 6.83-5.56 6.83-3.28 0-5.08-2.17-5.08-6.25V20.85h-6.46v17.32c0 6.41 3.44 10.33 9.53 10.33 3.02 0 5.83-1.27 7.63-3.87h.16v3.34h6.25V20.86h-6.46V36Zm27.38-15.52c-.69-.16-1.48-.16-2.17-.16-3.23 0-7.25 2.17-8.85 5.03h-.11v-4.5h-6.3v27.11h6.46V34.09c0-5.03 3.66-7.84 8.53-7.84.9 0 1.59 0 2.43.16v-5.93Zm16.55 11.28-4.08-.79c-2.8-.53-5.14-.8-5.14-2.7 0-2.07 1.85-3.02 4.4-3.02s4.45.8 6.03 2.65l4.66-3.18c-2.28-3.23-5.77-4.45-10.64-4.45-5.77 0-10.75 3.23-10.75 8.9 0 4.08 2.97 6.25 7.42 7.04l3.55.64c3.65.63 5.08 1.11 5.08 3.23 0 2.44-2.7 3.34-5.35 3.34-3.07 0-5.77-1.32-7.47-3.55l-4.56 3.44c2.7 3.97 7.26 5.24 12.13 5.24 5.56 0 11.96-2.97 11.96-9.22 0-4.08-2.65-6.67-7.25-7.57m46.57 17.26c-.13 0-.26-.07-.32-.19l-16.77-31.59a.38.38 0 0 1 0-.36c.07-.11.18-.18.31-.18h6.71c.13 0 .26.07.32.19l7.81 14.76C186.33 16.02 208.25.23 208.48.07c.15-.11.36-.08.48.06s.12.35 0 .49c-.24.25-23.69 25.28-27.77 48.11-.03.15-.15.27-.3.29zm-161.58 6.7c-.09-.13-.71-.2-.9-.17-.29.04-.52.22-.55.54-.16 1.6-.47 3.87-1.78 5.78-1.85 2.61-5.55 4.75-8.58 4.05-3.27-.76-2.23-4.35-2.05-5.45.28-1.7 1.31-3.06 1.2-3.35-.05-.14-.32-.43-.71-.49-.69-.1-1.04.58-1.54 1.7-.94 2.13-.86 4.62-.74 5.39.56 3.31 2.93 4.58 6.32 4.32 3.87-.53 6.72-4.25 7.12-4.75.51-.65.97-1.63 1.32-2.42.79-1.79 1.07-4.89.9-5.14Zm40.23 7.26c-.95-1.13-3.44-1.15-5.25-1.15-.48 0-.75-.13-.71-.38.19-1.35.92-3.6.96-4.09-.11-.74-.11-1.17-.67-1.23-.46-.02-.65.35-.75.66-.4 1.28-.87 3.06-1.23 5.09-.3 1.7-.17 4.88-.17 4.96 0 0-.45.19-.53.43-.04.14.23.64.67.68.25.02 1.09-.04 2.44-.42 5.22-1.49 5.71-2.87 5.71-3.5 0-.31-.16-.66-.48-1.04Zm-2.34 2.13c-1.55.76-4.01 1.38-4.01 1.38-.1-.57-.12-1.1 0-2.36.09-.87.44-.9.71-.96.57-.03 2.54.02 3.24.14.96.17 1.45.4 1.45.66 0 .32-.47.68-1.39 1.13Zm4.7.81c-.63.35.03 1.06-1.13 2.57-.58.75-.95 1.16-1.17 1.56-.15.28.04.54.54.39.1-.03.74-.12 1.36-.67 1.19-1.05 1.2-2.61 1.2-2.64 0-.86-.16-1.55-.79-1.2Zm-21.25.54c-.33.09-.47.31-.96.18-.51-.18-.95-1.69-1.86-1.75-.75-.05-.83.19-1.64.46-.68.22-2.65.67-2.2-.87.18-.63 1.25-1.68 2.88-1.54 1.03.09 1.71 1.56 2.15 1.39.28-.11.29-.64.13-1.12-.18-.55-.7-1.81-2.15-1.95-1.25-.12-3.01.01-4.47 2.25-.48.72-.3 2.33.27 3.18.61.86 1.15.91 1.57.91.63 0 2.61-.91 3.28-.91.5 0 1.46 1.22 2.08 1.25.97.05 1.63-.62 1.54-1.25-.02-.15-.18-.34-.65-.22Zm43.1 1.5h-.02zm59.72-1.83c-.43-.22-.61-.17-.9-.09-.35.11-.42.84-.42 1.12 0 .41.3.61.92.61.35 0 .76-.18.86-.51.04-.27-.02-.92-.46-1.14Zm-58.6-4.14c-.56-.37-1.27-.48-1.7-.48-2.35 0-3.72.94-4.52 2.44-.67 1.26.22 2.6 1.37 3.19 3.09 1.38 5.19.18 5.24-.25.09-.69-.96-.12-2.03-.16-1.06-.03-2.59-.44-2.61-1.16.03-.1.08-.11.16-.13.99-.2 4.27-.15 4.68-.5 1.04-1.09-.01-2.56-.6-2.94Zm-1.66 2.12-2.76.28c-.06 0-.14-.95.98-1.28.81-.24 1.92-.41 2.57-.06.46.2.8.95-.78 1.06Zm24.47-2.01c-2.7-1.44-5.42-.19-6.46.36-1.04.56-1.6 1.15-1.87 1.73-.35.76 0 1.47.51 1.64.61.03.53-.52.63-.83.21-.47.5-.84 1.05-1.09.16-.08 3.37-1.53 5.43-.58.34.16.61.42.71.71.18.53-.44 1.24-1.14 1.59-.59.32-4.03 1.79-4.26 1.79-.04 0-.24 0-.19-.21.2-.73.28-1.17.3-1.53.06-.82-.69-1.11-.93-1.13-.97-.07-1.63 8.87-1.63 8.87 0 .27.59.59.89.64.7.13.75-.99.82-1.85.07-1 .5-4.17.5-4.24.05-.05.55.31.92.28 5.01-.35 6.23-2.83 6.25-3.55.02-.57-.18-1.87-1.53-2.59Zm-38.09 5.24c1.92 1.05 4.48.68 6.18 0 1.4-.56 1.99-1.68 1.59-2.21-.03 0-.2-.25-.42.05-.25.34-.65.73-1.4.98-1.78.59-4.43.43-5.27-.18-.12-.09-.49-.41-.57-.7-.14-.51 0-1.26 1.18-1.85 2.05-.9 4.36-.67 4.5-.5.06.08-.05.71-.08 1.06-.05.78.54 1.12.76 1.13.93.06 1.51-9.23 1.51-9.23 0-.26-.57-.56-.85-.61-.67-.12-.72.95-.79 1.77-.07.95-.38 4.56-.39 4.63 0 .12-.11-.11-1.21-.13-2.94-.04-4.35.77-5.03 1.32-.78.62-1.03 1.65-1.06 2.17-.02.33-.14 1.49 1.34 2.3Zm72.33-5.91s-2.66-.02-3.04-.12c.32-2.63 1.74-4.74 1.84-4.86.18-.36.34-.51.28-.69-.16-.49-.36-.82-.74-.85-.62-.06-.9.61-1.49 1.84-.13.26-.68 1.51-1.02 2.45s-.42 1.49-.47 1.7c-.06.26-.08.43-.23.43l-2.65.03c-.17 0-.66.08-.66.68 0 .51-.05.79 1.08.97.3.02.75 0 1.4-.02 0 0 .41-.1.4.17-.23 1.94-.51 3.39-.51 3.77 0 .21-.06 1.1.62 1.25.47.11 2.62-.06 3.37-.7.37-.31.28-.53.06-.68-.29-.2-2.4.64-2.41-.26 0-.05.08-.59.06-.63.1-.73.32-2.34.42-2.62.05-.14.2-.22.46-.25.81-.12 2.91-.13 4.07-.62.23-.2.37-.99-.87-.96Zm-49.76.51c-1.93-.02-3.33 1.15-3.42 1.22-.02-.5-.06-1.05-.12-1.34-.07-.36-.51-.66-1.46-.36-.24.08-.05 1.02-.01 1.61.13 2.25-.4 3.32-.02 4.45.11.32.86.38 1.28.19.27-.05.38-1.82.59-2.48.34-1.11 2.13-1.88 3.65-1.88 0 0 1.3.11 1.9.12.55 0 .59-.19.48-.56-.06-.22-.56-.95-2.86-.97Zm-60.79-5.97c-.05-.36-.42-1.04-1.12-1.05-.19 0-.59.4-.62 1.02-.08 1.57-1.13 8-1.1 9.35-.03.72-.11 1.93.63 2.27.87.4 1.59-.06 1.74-.21s.38-.56.43-.73c.18-.58-.49-.43-1.15-.45-.11-.61-.14-.95-.08-2.06s.42-3.04.78-4.4c.38-1.45.58-3.11.5-3.72Zm18.72 5.33c-.06 0-.51-.02-.62.57-.16.45-.34.92-.84 1.58-.49.66-.99 1.16-1.48 1.49-.83.57-1.19 1.04-2.97.74-.93-.16-1.36-.82-1.36-1.68 0-.03.21-1.82-.23-2.02 0 0-.32-.14-.63-.06s-.55 1.12-.55 1.78c0 1.93.86 3.11 2.54 3.67 1.24.42 1.99.08 2.81-.18.6-.25.84-.46 1.19-.71-.02.26.1 1.35.45 1.46.17.06.84.05.89-.13s-.1-.2-.02-.91c.13-1.25.74-2.07 1.11-3.91.04-.18.35-1.69-.28-1.71Zm66.89 4.47c-.69-.51-.85-.76-1.39-.77-.63-.02-1 .13-1.81.39-.69.21-1.05.32-1.37.43-.31.08-.66-.03-.63-.49.03-.58 1.15-1.5 1.62-1.79.49-.31 1.04-.48 1.42-.44.47.05 1.49 1.26 2.14 1.19.49-.05.39-.93 0-1.48-.3-.43-1.14-1.26-2.2-1.26-1.28 0-2.59.57-4.18 2.33-.55.77-.68 1.99-.09 2.79.69.76 1.16.87 1.59.86.69 0 2.59-.86 3.19-.88.48.04 2.13 1.52 2.69 1.18.61-.45.38-1.06-.97-2.06Zm13.7-3.34c-1.2.06-2.73.34-1.92.86.33.31 1.73.3 3.5 1.17.42.19.82.62.8 1.34-.03.28-.26 1.12-2.35 1.5-1.14.2-1.94.27-2.48.28-.83.01-1.3.16-1.58-.3-.15-.18-.14-.53.09-.66s1.74-.18 2.67-.38c1-.21 1.98-.21 1.65-.77-.35-.46-3.59-1.28-3.74-1.36-1.28-.47-.98-1.24-.98-1.27 0-.63 1.46-1.09 1.95-1.24.59-.19 2.49-.45 3.72-.03.52.18.81.31.85.68.02.21-.25.35-.52.37-.62.03-.39-.12-1.65-.18Zm-7.38-.15c-1.19.06-3.13.59-1.85 1.03 1.07.44 1.84.24 3.59 1.1.53.28.74.61.72 1.32-.03.45-.48 1.37-2.56 1.75-1.13.2-1.92.27-2.46.28-.9.02-1.29.15-1.56-.29-.14-.18-.13-.55.1-.68s1.3-.27 2.56-.45c.93-.14 2.04-.33 1.72-.88-.09-.47-3.26-1.17-3.4-1.25-1.27-.47-1.11-1.31-1.11-1.33 0-.62 1.23-1.11 1.72-1.26.59-.19 2.18-.67 3.69-.42.54.09 1.22.32 1.22.69 0 .78-1.28.36-2.37.4Zm-98.77-.38c-1.91.04-2.9.72-3.06 1.25-.02-.49-.05-1.15-.16-1.41-.09-.2-.5-.65-1.44-.35-.24.08-.24.52-.24 1.1 0 .48-.37 3.7.57 4.89.2.26.81.31 1.23.12.27-.04.15-1.89.35-2.54.34-1.09 1.43-1.69 2.93-1.69 0 0 1.9.01 2.46 0s.58-.19.48-.55c-.06-.21-.56-.86-3.11-.81Z" style="fill:#00619e"/></svg>