<svg width="1200" height="1200" xmlns="http://www.w3.org/2000/svg" xmlns:xlink="http://www.w3.org/1999/xlink" version="1.1"><g transform="scale(1.2) translate(149.50000000000003, 50)">                        <g fill="#2e75fa"><defs xmlns="http://www.w3.org/2000/svg"/><g xmlns="http://www.w3.org/2000/svg"><path d="M359 528c88,-73 143,-206 138,-325 18,4 34,11 48,20l9 -23 1 31c8,6 14,14 20,22l13 -24 -6 37c6,13 10,28 11,45 33,-57 10,-112 -31,-126 14,0 28,1 41,4l16 -34 -4 38c9,3 17,6 25,10l13 -28 -4 33c18,10 35,22 52,37 -6,-54 -12,-106 -70,-114 -34,-4 -68,4 -95,22 12,-15 25,-29 40,-40l6 -24 9 15c8,-4 16,-8 25,-11l8 -21 6 17c12,-2 25,-3 39,-2 -42,-43 -99,-40 -145,22 7,-31 29,-72 47,-99 -27,19 -47,47 -58,78 2,-32 -7,-64 -25,-88 7,30 11,74 6,105 -20,-70 -73,-86 -129,-56 13,2 25,6 36,12l12 -15 0 22c7,5 14,10 20,16l14 -12 -4 25c10,14 18,30 23,47 -19,-23 -48,-39 -82,-43 -58,-8 -84,40 -110,91 22,-10 43,-18 63,-23l9 -32 2 29c9,-1 18,-3 27,-3l11 -37 2 37c14,0 28,2 41,6 -44,3 -88,50 -78,111 8,-15 17,-28 28,-39l8 -37 4 26c8,-7 17,-12 27,-16l13 -29 0 24c15,-5 30,-7 47,-8 -11,120 -104,211 -211,286 -95,-19 -220,23 -244,125 45,-2 69,-13 111,-33 37,-19 67,-27 109,-27 41,0 71,8 108,27 24,13 42,22 62,27 -9,-30 -28,-57 -54,-78zm-218 311c56,39 124,61 198,61 46,0 90,-9 130,-25 -116,-2 -127,-62 -226,-62 -46,0 -74,12 -102,26zm-141 -199c8,30 20,59 35,85 79,-9 99,-59 208,-59 121,0 130,62 232,62 90,0 108,-49 194,-60 10,-28 16,-58 19,-88 -83,8 -99,62 -213,62 -122,0 -131,-63 -232,-63 -101,0 -113,61 -233,61 -3,0 -7,0 -10,0zm54 114c16,23 36,44 58,63 33,-17 66,-35 131,-35 121,0 130,63 232,63 31,0 53,-6 73,-14 44,-33 81,-77 106,-128 -56,17 -83,56 -179,56 -122,0 -131,-63 -232,-63 -87,0 -108,45 -189,58z"/></g></g>        </g></svg>